<?xml version="1.0" encoding="UTF-8" standalone="no"?>
<!DOCTYPE svg PUBLIC "-//W3C//DTD SVG 1.1//EN" "http://www.w3.org/Graphics/SVG/1.1/DTD/svg11.dtd">
<svg version="1.1" xmlns="http://www.w3.org/2000/svg" xmlns:xlink="http://www.w3.org/1999/xlink" preserveAspectRatio="xMidYMid meet" viewBox="0 0 640 640" width="640" height="640"><defs><path d="M257.39 601.5L205.92 555.24C167.03 487.95 145.43 450.56 141.11 443.08C141.11 443.08 67.97 406.8 54.98 346.24C42 285.68 24.44 211.25 75.47 147.9C126.51 84.55 150.09 8.23 306.26 22.4C462.42 36.56 489.93 78.75 521.43 118.09C552.94 157.43 581.06 262.82 581.06 291.76C581.06 320.69 560.01 389.18 545.59 400.26C531.17 411.34 501.36 499.29 501.36 499.29C497.62 502.73 478.97 519.94 445.38 550.9L451.41 596.9L396.1 570.13L364.47 583.93L326.14 575.96L257.39 601.5Z" id="e3wz2RofSO"></path><path d="M348.14 54.51C348.14 54.51 347.07 54.63 345.07 54.88C323.87 57.58 198.81 76.28 160.15 145.87C117.86 222 123.78 289.67 123.78 289.67C123.78 289.67 84.02 320.12 74.71 341.69C65.47 363.12 58.04 362.26 58 362.17C45.66 338.94 28.39 297.71 30.29 281.77C37.06 224.84 65.26 159.19 97.89 112.54C162.72 19.83 267.9 7.56 371.38 33.09C381.78 35.66 414.09 38.96 420.68 47.74C421.95 49.44 347.07 54.63 347.07 54.63" id="d5NB2fry"></path><path d="M95.86 123.33C95.53 123.92 92.9 128.6 92.58 129.18C72.98 164.12 52.71 200.25 44.65 239.31C36.68 277.95 43.41 319.33 64.13 358.97C116.42 459 165.13 530.31 316.57 536.85C399.59 540.43 460.19 498.42 496.52 462.56C542.69 416.98 565.07 367.41 568.85 345.22C576.69 299.18 565.04 155.96 491.04 91.06C453.56 58.2 402.24 43.99 361.72 35.29C325.01 27.4 296.57 24.55 269.51 26.06C194.78 30.21 126.61 68.39 95.86 123.33ZM326.48 550.9C323 550.9 319.5 550.83 315.97 550.67C157.46 543.83 104.55 466.18 51.86 365.38C29.65 322.88 22.46 278.32 31.09 236.51C39.59 195.35 60.39 158.27 80.51 122.41C80.83 121.83 83.45 117.15 83.78 116.57C116.79 57.59 189.4 16.64 268.74 12.23C268.74 12.23 268.75 12.23 268.75 12.23C297.06 10.66 326.66 13.59 364.63 21.75C406.79 30.81 460.29 45.69 500.16 80.65C573.15 144.65 592.56 288.42 582.5 347.55C572.73 404.93 479.68 550.9 326.48 550.9" id="hS7j4x1lK"></path><path d="M278.15 249.07C278.15 256.78 271.9 263.03 264.19 263.03C256.48 263.03 250.23 256.78 250.23 249.07C250.23 241.36 256.48 235.11 264.19 235.11C271.9 235.11 278.15 241.36 278.15 249.07" id="b67KJIMz2I"></path><path d="M429 235.11C429 242.82 422.75 249.07 415.04 249.07C407.33 249.07 401.08 242.82 401.08 235.11C401.08 227.4 407.33 221.15 415.04 221.15C422.75 221.15 429 227.4 429 235.11" id="aQnrCMLKD"></path><path d="M182.71 333.7C280.47 341.23 334.79 345.42 345.65 346.25C349.68 346.57 353.77 346.06 357.63 344.77C370.94 340.32 477.41 304.72 490.72 300.27C508.95 294.17 527.54 306.25 527.18 323.96C526.84 341.02 524.06 477.56 523.72 494.62C523.52 504.4 517.36 513.44 507.81 518C493.86 524.65 382.22 577.88 368.27 584.53C362.18 587.43 355.25 588.24 348.76 586.8C330.73 582.82 186.48 550.95 168.45 546.97C156.19 544.26 147.8 534.15 148.04 522.39C148.37 506.15 151.06 376.19 151.39 359.94C151.7 344.64 166.28 332.43 182.71 333.7" id="avpC3HHZX"></path><path d="M180.37 340.53C174.61 340.53 169.02 342.65 164.8 346.49C160.72 350.19 158.41 355.02 158.31 360.09C157.98 376.33 155.3 506.29 154.96 522.53C154.79 530.95 160.95 538.22 169.94 540.21C187.97 544.19 332.23 576.06 350.26 580.04C355.24 581.15 360.58 580.52 365.29 578.28C379.25 571.63 490.88 518.4 504.84 511.75C512.07 508.3 516.65 501.69 516.79 494.48C517.14 477.42 519.92 340.88 520.26 323.81C520.38 318.16 517.83 313.13 513.1 309.65C507.5 305.53 499.97 304.48 492.91 306.83C479.6 311.28 373.13 346.88 359.82 351.33C355.05 352.93 350.12 353.54 345.12 353.15C328.83 351.9 198.47 341.86 182.18 340.6C181.57 340.56 180.97 340.53 180.37 340.53M355.14 594.42C352.5 594.42 349.86 594.13 347.28 593.56C329.24 589.58 184.99 557.71 166.96 553.72C151.43 550.29 140.81 537.35 141.12 522.25C141.45 506 144.13 376.05 144.47 359.8C144.66 350.88 148.57 342.52 155.5 336.23C162.97 329.46 173.11 326.03 183.24 326.8C199.53 328.06 329.89 338.1 346.18 339.35C349.28 339.6 352.47 339.19 355.43 338.2C368.74 333.75 475.21 298.15 488.52 293.7C499.82 289.92 512.08 291.71 521.3 298.5C529.64 304.63 534.31 313.96 534.11 324.1C533.76 341.16 530.99 477.7 530.64 494.76C530.38 507.23 522.78 518.53 510.8 524.24C496.84 530.9 385.2 584.12 371.24 590.78C366.19 593.18 360.67 594.42 355.14 594.42" id="b6t6kdQy0y"></path><path d="M109.31 310.14C98.71 318.27 89.04 328.09 81.1 338.82C62.72 363.67 57.1 405.77 70.83 433.93C75.92 444.38 83.96 453.14 92.79 460.68C118.65 482.74 154.5 496.93 185.7 476.75C190.89 473.39 195.85 469.1 197.96 463.29C204.36 445.67 176.75 435.94 165.44 429.39C157.07 424.54 148.5 420.01 139.77 415.87C139.77 415.87 130.46 412.07 132.16 404.45C133.85 396.84 143.99 395.15 143.99 395.15" id="blk78xDVX"></path><path d="M153 493.28C132.01 493.28 109.47 484.01 88.3 465.95C77.28 456.54 69.53 447.06 64.61 436.96C50.19 407.4 54.99 362.48 75.54 334.7C83.78 323.55 94 313.16 105.1 304.64C108.14 302.32 112.48 302.89 114.81 305.92C117.13 308.96 116.56 313.3 113.53 315.63C103.44 323.36 94.15 332.81 86.67 342.94C69.22 366.53 64.9 405.98 77.05 430.9C81.12 439.25 87.74 447.27 97.28 455.42C111.37 467.43 147.81 493.01 181.94 470.94C187.11 467.59 190.23 464.31 191.46 460.93C194.44 452.72 182.61 445.94 169.15 439.15C166.52 437.83 164.04 436.58 161.97 435.37C153.74 430.61 145.32 426.18 136.95 422.2C129.94 419.25 123.39 412.01 125.4 402.95C127.54 393.35 137.38 389.23 142.86 388.32C146.66 387.69 150.19 390.24 150.82 394.01C151.45 397.78 148.9 401.35 145.14 401.98C143.42 402.29 139.4 403.74 138.91 405.96C138.58 407.44 141.83 409.23 142.45 409.49C151.5 413.78 160.3 418.41 168.91 423.4C170.71 424.44 172.95 425.56 175.39 426.8C189.04 433.68 211.89 445.21 204.47 465.65C202.17 471.98 197.26 477.51 189.46 482.56C178.35 489.75 165.97 493.28 153 493.28" id="g1C1GRMjh7"></path><path d="M567.38 272.44C577.98 280.58 587.66 290.39 595.6 301.13C613.97 325.97 619.6 368.07 605.87 396.23C600.78 406.68 592.74 415.44 583.91 422.98C558.05 445.05 522.2 459.24 491 439.05C485.81 435.69 480.84 431.41 478.74 425.59C472.34 407.97 499.95 398.24 511.26 391.69C519.62 386.85 528.2 382.32 536.93 378.18C536.93 378.18 546.24 374.37 544.54 366.76C542.85 359.14 532.71 357.45 532.71 357.45" id="d1wH1pYoWL"></path><path d="M523.7 455.59C510.73 455.59 498.35 452.05 487.24 444.86C479.43 439.81 474.52 434.28 472.23 427.96C464.81 407.51 487.66 395.99 501.32 389.1C503.76 387.86 506 386.74 507.79 385.7C516.38 380.73 525.18 376.09 533.97 371.92C534 371.91 534.27 371.79 534.31 371.77C534.86 371.53 538.12 369.75 537.79 368.26C537.3 366.04 533.28 364.59 531.51 364.27C527.78 363.58 525.26 360.01 525.91 356.26C526.57 352.52 530.1 350 533.84 350.62C539.32 351.54 549.16 355.65 551.3 365.25C553.31 374.32 546.75 381.55 539.75 384.5C531.36 388.49 522.94 392.92 514.73 397.68C512.66 398.88 510.18 400.13 507.55 401.45C494.09 408.24 482.26 415.02 485.24 423.23C486.47 426.62 489.58 429.89 494.76 433.24C528.89 455.32 565.33 429.74 579.42 417.72C588.95 409.58 595.57 401.56 599.64 393.2C611.79 368.29 607.48 328.83 590.03 305.24C582.54 295.11 573.25 285.67 563.17 277.93C560.14 275.61 559.57 271.26 561.89 268.23C564.22 265.19 568.57 264.63 571.6 266.95C582.69 275.46 592.91 285.85 601.16 297.01C621.7 324.78 626.5 369.7 612.09 399.27C607.17 409.37 599.42 418.85 588.4 428.25C567.23 446.32 544.69 455.59 523.7 455.59" id="b1cJwlnkHu"></path><path d="M260.72 614.96L200.54 560.62L207.49 552.91L267.67 607.25L260.72 614.96Z" id="dbNeUfvGB"></path><path d="M433.29 600.51L393.93 575.33L399.53 566.59L438.88 591.77L433.29 600.51Z" id="k9giOcSN6"></path><path d="M322.98 563.73C322.98 595.5 306.69 621.25 286.61 621.25C266.52 621.25 250.23 595.5 250.23 563.73C250.23 531.97 266.52 506.22 286.61 506.22C306.69 506.22 322.98 531.97 322.98 563.73" id="b1ZPb7xPq1"></path><path d="M286.61 513.14C270.64 513.14 257.15 536.31 257.15 563.73C257.15 591.16 270.64 614.33 286.61 614.33C302.57 614.33 316.06 591.16 316.06 563.73C316.06 536.31 302.57 513.14 286.61 513.14M286.61 628.17C262.33 628.17 243.31 599.87 243.31 563.73C243.31 527.6 262.33 499.29 286.61 499.29C310.88 499.29 329.9 527.6 329.9 563.73C329.9 599.87 310.88 628.17 286.61 628.17" id="cSasOhp3r"></path><path d="M487.79 543.98C487.79 575.75 471.51 601.5 451.41 601.5C431.33 601.5 415.04 575.75 415.04 543.98C415.04 512.21 431.33 486.46 451.41 486.46C471.51 486.46 487.79 512.21 487.79 543.98" id="aTHmsiBEc"></path><path d="M451.41 493.38C435.45 493.38 421.96 516.55 421.96 543.98C421.96 571.4 435.45 594.58 451.41 594.58C467.38 594.58 480.87 571.4 480.87 543.98C480.87 516.55 467.38 493.38 451.41 493.38M451.41 608.42C427.14 608.42 408.12 580.11 408.12 543.98C408.12 507.84 427.14 479.54 451.41 479.54C475.69 479.54 494.71 507.84 494.71 543.98C494.71 580.11 475.69 608.42 451.41 608.42" id="b1NqB2S8fK"></path><path d="M373.07 299.69C374.26 308.15 364.07 316.57 350.31 318.52C336.54 320.46 324.42 315.19 323.23 306.73C322.03 298.28 332.22 289.85 345.98 287.91C359.75 285.96 371.87 291.24 373.07 299.69" id="aabwBQ0sK"></path><path d="M351.69 290.96C349.98 290.96 348.24 291.08 346.46 291.33C334.82 292.98 325.74 299.81 326.65 306.25C327.56 312.68 338.18 316.74 349.82 315.09C361.47 313.45 370.55 306.62 369.64 300.18C369.09 296.33 365.16 294.07 362.86 293.07C359.65 291.68 355.8 290.96 351.69 290.96M344.57 322.39C331.48 322.39 321.08 316.32 319.8 307.22C318.31 296.71 329.6 286.72 345.5 284.48C352.77 283.45 359.93 284.25 365.62 286.73C371.88 289.45 375.74 293.89 376.49 299.21C377.98 309.72 366.69 319.7 350.79 321.95C348.67 322.25 346.58 322.39 344.57 322.39" id="a1qOl0Smvw"></path></defs><g><g><g><use xlink:href="#e3wz2RofSO" opacity="1" fill="#ffffff" fill-opacity="1"></use><g><use xlink:href="#e3wz2RofSO" opacity="1" fill-opacity="0" stroke="#000000" stroke-width="1" stroke-opacity="0"></use></g></g><g><use xlink:href="#d5NB2fry" opacity="1" fill="#eaeaea" fill-opacity="1"></use><g><use xlink:href="#d5NB2fry" opacity="1" fill-opacity="0" stroke="#000000" stroke-width="1" stroke-opacity="0"></use></g></g><g><use xlink:href="#hS7j4x1lK" opacity="1" fill="#141312" fill-opacity="1"></use><g><use xlink:href="#hS7j4x1lK" opacity="1" fill-opacity="0" stroke="#000000" stroke-width="1" stroke-opacity="0"></use></g></g><g><use xlink:href="#b67KJIMz2I" opacity="1" fill="#141312" fill-opacity="1"></use><g><use xlink:href="#b67KJIMz2I" opacity="1" fill-opacity="0" stroke="#000000" stroke-width="1" stroke-opacity="0"></use></g></g><g><use xlink:href="#aQnrCMLKD" opacity="1" fill="#141312" fill-opacity="1"></use><g><use xlink:href="#aQnrCMLKD" opacity="1" fill-opacity="0" stroke="#000000" stroke-width="1" stroke-opacity="0"></use></g></g><g><use xlink:href="#avpC3HHZX" opacity="1" fill="#8bc673" fill-opacity="1"></use><g><use xlink:href="#avpC3HHZX" opacity="1" fill-opacity="0" stroke="#000000" stroke-width="1" stroke-opacity="0"></use></g></g><g><use xlink:href="#b6t6kdQy0y" opacity="1" fill="#000000" fill-opacity="1"></use><g><use xlink:href="#b6t6kdQy0y" opacity="1" fill-opacity="0" stroke="#000000" stroke-width="1" stroke-opacity="0"></use></g></g><g><use xlink:href="#blk78xDVX" opacity="1" fill="#ffffff" fill-opacity="1"></use><g><use xlink:href="#blk78xDVX" opacity="1" fill-opacity="0" stroke="#000000" stroke-width="1" stroke-opacity="0"></use></g></g><g><use xlink:href="#g1C1GRMjh7" opacity="1" fill="#131211" fill-opacity="1"></use><g><use xlink:href="#g1C1GRMjh7" opacity="1" fill-opacity="0" stroke="#000000" stroke-width="1" stroke-opacity="0"></use></g></g><g><use xlink:href="#d1wH1pYoWL" opacity="1" fill="#ffffff" fill-opacity="1"></use><g><use xlink:href="#d1wH1pYoWL" opacity="1" fill-opacity="0" stroke="#000000" stroke-width="1" stroke-opacity="0"></use></g></g><g><use xlink:href="#b1cJwlnkHu" opacity="1" fill="#131211" fill-opacity="1"></use><g><use xlink:href="#b1cJwlnkHu" opacity="1" fill-opacity="0" stroke="#000000" stroke-width="1" stroke-opacity="0"></use></g></g><g><use xlink:href="#dbNeUfvGB" opacity="1" fill="#141312" fill-opacity="1"></use><g><use xlink:href="#dbNeUfvGB" opacity="1" fill-opacity="0" stroke="#000000" stroke-width="1" stroke-opacity="0"></use></g></g><g><use xlink:href="#k9giOcSN6" opacity="1" fill="#141312" fill-opacity="1"></use><g><use xlink:href="#k9giOcSN6" opacity="1" fill-opacity="0" stroke="#000000" stroke-width="1" stroke-opacity="0"></use></g></g><g><use xlink:href="#b1ZPb7xPq1" opacity="1" fill="#ffffff" fill-opacity="1"></use><g><use xlink:href="#b1ZPb7xPq1" opacity="1" fill-opacity="0" stroke="#000000" stroke-width="1" stroke-opacity="0"></use></g></g><g><use xlink:href="#cSasOhp3r" opacity="1" fill="#131211" fill-opacity="1"></use><g><use xlink:href="#cSasOhp3r" opacity="1" fill-opacity="0" stroke="#000000" stroke-width="1" stroke-opacity="0"></use></g></g><g><use xlink:href="#aTHmsiBEc" opacity="1" fill="#ffffff" fill-opacity="1"></use><g><use xlink:href="#aTHmsiBEc" opacity="1" fill-opacity="0" stroke="#000000" stroke-width="1" stroke-opacity="0"></use></g></g><g><use xlink:href="#b1NqB2S8fK" opacity="1" fill="#131211" fill-opacity="1"></use><g><use xlink:href="#b1NqB2S8fK" opacity="1" fill-opacity="0" stroke="#000000" stroke-width="1" stroke-opacity="0"></use></g></g><g><use xlink:href="#aabwBQ0sK" opacity="1" fill="#f8c8c6" fill-opacity="1"></use><g><use xlink:href="#aabwBQ0sK" opacity="1" fill-opacity="0" stroke="#000000" stroke-width="1" stroke-opacity="0"></use></g></g><g><use xlink:href="#a1qOl0Smvw" opacity="1" fill="#141312" fill-opacity="1"></use><g><use xlink:href="#a1qOl0Smvw" opacity="1" fill-opacity="0" stroke="#000000" stroke-width="1" stroke-opacity="0"></use></g></g></g></g></svg>