<svg width="75" height="97" viewBox="0 0 75 97" fill="none" xmlns="http://www.w3.org/2000/svg">
<rect x="1.5" y="1.5" width="72" height="72" rx="13.5" fill="#83B1B1" stroke="black" stroke-width="3"/>
<path d="M9.17237 88.192H14.3244V89.968H1.76437V88.192H7.09237V87.04H3.33237V82.352H12.9004V84H5.62037V85.536H12.9004V87.04H9.17237V88.192ZM3.22037 91.12H13.0764V92.64C13.0657 93.0347 13.023 93.408 12.9484 93.76C12.8844 94.112 12.8097 94.4213 12.7244 94.688C12.6284 94.9973 12.5217 95.2853 12.4044 95.552H10.2764C10.4577 95.2 10.5964 94.864 10.6924 94.544C10.7884 94.2347 10.8577 93.9627 10.9004 93.728C10.943 93.4507 10.9644 93.1947 10.9644 92.96H3.22037V91.12ZM24.288 83.376H28.288V85.024H27.024C27.1627 85.3013 27.232 85.6 27.232 85.92V87.104C27.232 87.392 27.1627 87.6587 27.024 87.904C26.896 88.1387 26.7147 88.3413 26.48 88.512C26.2453 88.672 25.9733 88.8 25.664 88.896C25.3547 88.992 25.024 89.04 24.672 89.04H21.232C20.8587 89.04 20.5173 88.9867 20.208 88.88C19.9093 88.7733 19.6533 88.6347 19.44 88.464C19.2267 88.2827 19.056 88.0747 18.928 87.84C18.8107 87.5947 18.752 87.344 18.752 87.088V85.936C18.752 85.616 18.8373 85.312 19.008 85.024H17.744V83.376H21.552V82.096H24.288V83.376ZM29.28 89.728V91.648H24.128V95.776H22.016V91.648H16.88V89.728H29.28ZM21.648 87.52H24.32C24.5973 87.52 24.832 87.4187 25.024 87.216C25.2267 87.0133 25.328 86.7787 25.328 86.512C25.328 86.2347 25.2267 85.9947 25.024 85.792C24.832 85.5787 24.5973 85.472 24.32 85.472H21.648C21.3707 85.472 21.136 85.5787 20.944 85.792C20.752 85.9947 20.656 86.2347 20.656 86.512C20.656 86.7787 20.7467 87.0133 20.928 87.216C21.1093 87.4187 21.3493 87.52 21.648 87.52ZM38.5434 83.312V84.8C38.554 85.5573 38.4687 86.256 38.2874 86.896C38.1167 87.5253 37.9247 88.0693 37.7114 88.528C37.4554 89.072 37.1674 89.5573 36.8474 89.984H34.6394C35.0127 89.472 35.3114 88.976 35.5354 88.496C35.7594 88.016 35.93 87.5627 36.0474 87.136C36.1647 86.7093 36.2394 86.32 36.2714 85.968C36.3034 85.616 36.3194 85.3173 36.3194 85.072H31.8394V83.312H38.5434ZM44.2394 85.056V86.944H42.4314V90.064H40.5274V82.32H42.4314V85.056H44.2394ZM33.3274 90.944H42.6234V95.792H33.3274V90.944ZM40.8794 94.112V92.608H34.9914V94.112H40.8794ZM54.3987 83.152V85.008H51.5027C51.6521 85.424 51.8761 85.808 52.1747 86.16C52.4734 86.512 52.7774 86.816 53.0867 87.072C53.4387 87.3707 53.8174 87.6427 54.2227 87.888V89.856C53.7534 89.7067 53.3107 89.4773 52.8947 89.168C52.4787 88.848 52.1107 88.528 51.7907 88.208C51.4174 87.8347 51.0707 87.4293 50.7507 86.992C50.4841 87.4933 50.1374 87.9253 49.7107 88.288C49.2841 88.6507 48.8681 88.9493 48.4627 89.184C47.9827 89.4613 47.4867 89.6907 46.9747 89.872V88.016C47.4334 87.792 47.8334 87.5467 48.1747 87.28C48.5161 87.0027 48.8041 86.7307 49.0387 86.464C49.2734 86.1867 49.4601 85.9253 49.5987 85.68C49.7374 85.424 49.8441 85.2 49.9187 85.008H46.7987V83.152H54.3987ZM59.2787 85.056V86.944H57.4707V89.744H55.5667V82.32H57.4707V85.056H59.2787ZM47.9027 91.056H57.5347V92.88C57.5134 93.2747 57.4707 93.648 57.4067 94C57.3427 94.352 57.2681 94.6613 57.1827 94.928C57.0867 95.2373 56.9854 95.5253 56.8787 95.792H54.9107C55.0921 95.44 55.2307 95.088 55.3267 94.736C55.4227 94.3947 55.4921 94.0853 55.5347 93.808C55.5774 93.488 55.5987 93.1787 55.5987 92.88H47.9027V91.056ZM72.3803 90.976C72.9563 90.976 73.4096 91.1093 73.7403 91.376C74.0709 91.6427 74.2363 92.1067 74.2363 92.768V94.256C74.2363 94.48 74.1883 94.6827 74.0923 94.864C74.0069 95.056 73.8896 95.216 73.7403 95.344C73.5909 95.4827 73.4096 95.5893 73.1963 95.664C72.9829 95.7493 72.7589 95.792 72.5243 95.792H66.3643C66.1509 95.792 65.9376 95.7547 65.7243 95.68C65.5109 95.616 65.3189 95.5147 65.1483 95.376C64.9883 95.2373 64.8549 95.0613 64.7483 94.848C64.6523 94.6347 64.6043 94.3893 64.6043 94.112V92.784C64.6043 92.4853 64.6683 92.224 64.7963 92C64.9349 91.776 65.1056 91.5893 65.3083 91.44C65.5216 91.28 65.7563 91.1627 66.0123 91.088C66.2789 91.0133 66.5349 90.976 66.7803 90.976H72.3803ZM67.6923 83.312C67.7243 83.5787 67.7936 83.8773 67.9003 84.208C68.0176 84.528 68.1563 84.8587 68.3163 85.2C68.4763 85.5413 68.6523 85.888 68.8443 86.24C69.0469 86.592 69.2443 86.928 69.4363 87.248C69.8949 88.0053 70.4016 88.7787 70.9563 89.568H68.5883C68.4283 89.3653 68.2363 89.0827 68.0123 88.72C67.7883 88.3467 67.5696 87.9733 67.3563 87.6C67.1109 87.1733 66.8603 86.7147 66.6043 86.224C66.3483 86.7573 66.0443 87.312 65.6923 87.888C65.3509 88.4533 64.9776 89.0133 64.5723 89.568H61.9963C62.6043 88.8 63.1269 88.048 63.5643 87.312C64.0123 86.5653 64.3749 85.8933 64.6523 85.296C64.9829 84.6027 65.2603 83.9413 65.4843 83.312H67.6923ZM74.2203 82.32V90.16H72.1883V87.008H70.3483V85.152H72.1883V82.32H74.2203ZM67.4683 92.656C67.1589 92.656 66.9403 92.6933 66.8123 92.768C66.6949 92.8427 66.6309 92.9707 66.6203 93.152L66.6043 93.68C66.5936 93.904 66.6789 94.0587 66.8603 94.144C67.0523 94.2293 67.2549 94.272 67.4683 94.272H71.6923C71.8843 94.272 72.0496 94.2133 72.1883 94.096C72.3269 93.9787 72.3963 93.8453 72.3963 93.696V93.216C72.3963 93.0667 72.3269 92.9387 72.1883 92.832C72.0496 92.7147 71.8843 92.656 71.6923 92.656H67.4683Z" fill="#1A2844"/>
<ellipse cx="38" cy="57.5" rx="31" ry="7.5" fill="#3C4F50" fill-opacity="0.6"/>
<path d="M22.0034 34.0942H8" stroke="#1A2844" stroke-width="3" stroke-linecap="round" stroke-linejoin="round"/>
<path d="M26.0044 25.1367H8" stroke="#1A2844" stroke-width="3" stroke-linecap="round" stroke-linejoin="round"/>
<path d="M26.0044 43.0513H8" stroke="#1A2844" stroke-width="3" stroke-linecap="round" stroke-linejoin="round"/>
<path d="M22.0034 52.0088H8" stroke="#1A2844" stroke-width="3" stroke-linecap="round" stroke-linejoin="round"/>
<path d="M47.5 52.5465L62.5485 37.498L68.9978 43.9474L53.9493 58.9958L47.5 52.5465Z" fill="#00969B" stroke="#1A2844" stroke-width="3" stroke-linecap="round" stroke-linejoin="round"/>
<path d="M60.4004 39.6476L57.1757 23.5242L26.0039 16L33.5281 47.1718L49.6515 50.3965L60.4004 39.6476Z" fill="white" stroke="#1A2844" stroke-width="3" stroke-linecap="round" stroke-linejoin="round"/>
<path d="M26.0039 16L42.3121 32.3082L26.0039 16Z" fill="white"/>
<path d="M26.0039 16L42.3121 32.3082" stroke="#1A2844" stroke-width="3" stroke-linecap="round" stroke-linejoin="round"/>
<path d="M45.3503 39.6475C47.7249 39.6475 49.6499 37.7225 49.6499 35.3479C49.6499 32.9733 47.7249 31.0483 45.3503 31.0483C42.9758 31.0483 41.0508 32.9733 41.0508 35.3479C41.0508 37.7225 42.9758 39.6475 45.3503 39.6475Z" fill="white" stroke="#1A2844" stroke-width="3" stroke-linecap="round" stroke-linejoin="round"/>
</svg>
