<svg width="84" height="98" viewBox="0 0 84 98" fill="none" xmlns="http://www.w3.org/2000/svg">
<rect x="5.5" y="1.5" width="72" height="72" rx="13.5" fill="#E4563E" stroke="#1A2844" stroke-width="3"/>
<path d="M0.831563 83.848H8.31956V85.496H0.831563V83.848ZM7.64756 86.152L6.68756 88.632H8.44756V90.248H0.831563V88.632H2.59156L1.63156 86.152H3.53556L4.25556 88.632H5.00756L5.71156 86.152H7.64756ZM12.0956 90.632H10.2556V83.336H12.0956V90.632ZM2.25556 96.792V93.192H9.75956V92.472H2.25556V91.176H11.9996V94.648H4.30356V95.352H11.9996V96.808H2.20756L2.25556 96.792ZM21.1783 86.152H17.0343V87.992H20.4583V89.832H17.0343V92.152H21.6583V94.008H14.6503V84.312H21.1783V86.152ZM23.5463 83.32H25.8343V96.792H23.5463V89.864H21.1783V87.624H23.5463V83.32ZM30.7109 89.048H35.8149V90.68H28.6149V86.664H33.4149V85.736H28.6309V84.104H35.5109V87.944H30.7109V89.048ZM37.3829 83.32H39.5269V91H37.3829V83.32ZM31.8789 92.04H37.6389C37.9269 92.04 38.1936 92.072 38.4389 92.136C38.6949 92.2 38.9136 92.3013 39.0949 92.44C39.2869 92.5787 39.4363 92.7547 39.5429 92.968C39.6496 93.1813 39.7029 93.4373 39.7029 93.736V95.048C39.7029 95.592 39.5323 96.0187 39.1909 96.328C38.8496 96.6373 38.3909 96.792 37.8149 96.792H31.7349C31.1483 96.792 30.6789 96.6267 30.3269 96.296C29.9856 95.976 29.8149 95.5867 29.8149 95.128V93.752C29.8149 93.4427 29.8789 93.1813 30.0069 92.968C30.1456 92.744 30.3163 92.568 30.5189 92.44C30.7216 92.3013 30.9403 92.2 31.1749 92.136C31.4203 92.072 31.6549 92.04 31.8789 92.04ZM37.0789 93.752H32.5829C32.2736 93.752 32.0763 93.8 31.9909 93.896C31.9056 93.9813 31.8576 94.0827 31.8469 94.2V94.776C31.8469 94.8933 31.8629 94.984 31.8949 95.048C31.9376 95.112 31.9963 95.1547 32.0709 95.176C32.1456 95.208 32.2256 95.224 32.3109 95.224C32.4069 95.2347 32.5083 95.24 32.6149 95.24H37.1109C37.3029 95.24 37.4683 95.1973 37.6069 95.112C37.7456 95.0267 37.8149 94.9093 37.8149 94.76V94.296C37.8149 94.1467 37.7456 94.0187 37.6069 93.912C37.4683 93.8053 37.2923 93.752 37.0789 93.752ZM48.4649 84.536V86.392C48.4649 87.1173 48.3476 87.8267 48.1129 88.52C47.8889 89.2027 47.5956 89.8533 47.2329 90.472C46.8703 91.08 46.4649 91.6507 46.0169 92.184C45.5796 92.7067 45.1476 93.1813 44.7209 93.608C44.2943 94.024 43.8996 94.3813 43.5369 94.68C43.1743 94.9787 42.8916 95.2027 42.6889 95.352V92.664C43.2116 92.2053 43.6863 91.72 44.1129 91.208C44.5396 90.6853 44.9023 90.1627 45.2009 89.64C45.4996 89.1067 45.7343 88.584 45.9049 88.072C46.0756 87.5493 46.1769 87.0587 46.2089 86.6H42.2409V84.536H48.4649ZM50.0489 83.32H51.9209V96.792H50.0489V90.504H48.4009V88.232H50.0489V83.32ZM54.7529 83.32V96.792H52.8649V83.32H54.7529ZM68.4777 96.792H66.2057V83.496H68.4777V96.792ZM62.2057 84.44H59.9977V87.096C59.9977 88.152 59.7844 89.064 59.3577 89.832C58.9417 90.5893 58.259 91.208 57.3097 91.688V93.832C57.8004 93.6293 58.275 93.384 58.7337 93.096C59.1284 92.8507 59.539 92.5413 59.9657 92.168C60.403 91.784 60.7764 91.3253 61.0857 90.792C61.4377 91.3253 61.8217 91.784 62.2377 92.168C62.6644 92.5413 63.059 92.8507 63.4217 93.096C63.8484 93.384 64.275 93.6293 64.7017 93.832V91.672C64.2324 91.3733 63.8377 91.064 63.5177 90.744C63.1977 90.4133 62.9417 90.0613 62.7497 89.688C62.5577 89.3147 62.419 88.9147 62.3337 88.488C62.2484 88.0613 62.2057 87.5973 62.2057 87.096V84.44ZM71.0347 83.864H78.6507V85.512H71.0347V83.864ZM77.8507 86.232L76.8907 88.968H78.4907V90.584H71.0347V88.968H72.7947L71.8347 86.232H73.4507L74.4587 88.968H75.2107L76.2347 86.232H77.8507ZM81.5947 87.08H83.1627V88.872H81.5947V92.104H79.5787V83.32H81.5947V87.08ZM81.8987 96.488H72.3307V92.056H74.3467V94.584H81.8987V96.488Z" fill="#1A2844"/>
<path d="M41.5 62C53.9264 62 64 51.9264 64 39.5C64 27.0736 53.9264 17 41.5 17C29.0736 17 19 27.0736 19 39.5C19 51.9264 29.0736 62 41.5 62Z" fill="white" stroke="#1A2844" stroke-width="3" stroke-linecap="round" stroke-linejoin="round"/>
<path d="M50.5 48.5C50.5 48.5 47.125 44 41.5 44C35.875 44 32.5 48.5 32.5 48.5" fill="white"/>
<path d="M50.5 48.5C50.5 48.5 47.125 44 41.5 44C35.875 44 32.5 48.5 32.5 48.5" stroke="#1A2844" stroke-width="3" stroke-linecap="round" stroke-linejoin="round"/>
<path d="M34.75 32.75H34.7725" stroke="#1A2844" stroke-width="3" stroke-linecap="round" stroke-linejoin="round"/>
<path d="M48.25 32.75H48.2725" stroke="#1A2844" stroke-width="3" stroke-linecap="round" stroke-linejoin="round"/>
</svg>
