<svg width="75" height="98" viewBox="0 0 75 98" fill="none" xmlns="http://www.w3.org/2000/svg">
<rect x="1.5" y="1.5" width="72" height="72" rx="13.5" fill="#258092" stroke="#1A2844" stroke-width="3"/>
<path d="M15.0666 87.832H17.0826V89.896H15.0666V96.808H12.8426V83.512H15.0666V87.832ZM4.50656 84.648H11.1786V92.856H4.50656V84.648ZM9.33856 91V86.664H6.33056V91H9.33856ZM24.6938 93.96C24.9711 93.96 25.2431 93.896 25.5098 93.768C25.7765 93.64 26.0111 93.4587 26.2138 93.224C26.4165 92.9787 26.5765 92.6907 26.6938 92.36C26.8218 92.0293 26.8858 91.6613 26.8858 91.256V87.4C26.8858 86.984 26.8165 86.5947 26.6778 86.232C26.5498 85.8693 26.3578 85.5547 26.1018 85.288C25.8565 85.0107 25.5578 84.7973 25.2058 84.648C24.8538 84.488 24.4538 84.408 24.0058 84.408H22.5818C22.1125 84.408 21.6965 84.4827 21.3338 84.632C20.9711 84.7813 20.6618 84.9893 20.4058 85.256C20.1605 85.5227 19.9685 85.8373 19.8298 86.2C19.7018 86.552 19.6378 86.936 19.6378 87.352V91.16C19.6378 91.672 19.7125 92.1093 19.8618 92.472C20.0111 92.824 20.2031 93.112 20.4378 93.336C20.6831 93.5493 20.9498 93.7093 21.2378 93.816C21.5258 93.912 21.8138 93.96 22.1018 93.96H24.6938ZM30.3738 96.808H28.2298V83.352H30.3738V96.808ZM22.9018 92.312C22.4965 92.312 22.1871 92.216 21.9738 92.024C21.7711 91.8213 21.6698 91.4587 21.6698 90.936V87.544C21.6698 87.3733 21.7018 87.2133 21.7658 87.064C21.8405 86.904 21.9311 86.7653 22.0378 86.648C22.1551 86.52 22.2885 86.424 22.4378 86.36C22.5871 86.2853 22.7418 86.248 22.9018 86.248H23.7018C23.8618 86.248 24.0111 86.2853 24.1498 86.36C24.2991 86.424 24.4218 86.52 24.5178 86.648C24.6245 86.7653 24.7098 86.904 24.7738 87.064C24.8378 87.2133 24.8698 87.3733 24.8698 87.544V90.936C24.8698 91.0853 24.8431 91.2453 24.7898 91.416C24.7471 91.576 24.6778 91.7253 24.5818 91.864C24.4858 91.992 24.3631 92.0987 24.2138 92.184C24.0751 92.2693 23.9045 92.312 23.7018 92.312H22.9018ZM33.1284 84.552H40.0564V86.44H33.1284V84.552ZM39.3844 86.984L38.2164 91.848H40.0564V93.72H33.1284V91.848H34.9204L33.7364 86.984H35.4804L36.5684 91.224L37.6724 86.984H39.3844ZM41.1124 87.88V83.32H42.8244V96.792H41.1124V90.152H39.7844V87.88H41.1124ZM43.7684 83.32H45.6564V96.792H43.7684V83.32ZM53.2688 93.96C53.5461 93.96 53.8181 93.896 54.0848 93.768C54.3515 93.64 54.5861 93.4587 54.7888 93.224C54.9915 92.9787 55.1515 92.6907 55.2688 92.36C55.3968 92.0293 55.4608 91.6613 55.4608 91.256V87.4C55.4608 86.984 55.3915 86.5947 55.2528 86.232C55.1248 85.8693 54.9328 85.5547 54.6768 85.288C54.4315 85.0107 54.1328 84.7973 53.7808 84.648C53.4288 84.488 53.0288 84.408 52.5808 84.408H51.1568C50.6875 84.408 50.2715 84.4827 49.9088 84.632C49.5461 84.7813 49.2368 84.9893 48.9808 85.256C48.7355 85.5227 48.5435 85.8373 48.4048 86.2C48.2768 86.552 48.2128 86.936 48.2128 87.352V91.16C48.2128 91.672 48.2875 92.1093 48.4368 92.472C48.5861 92.824 48.7781 93.112 49.0128 93.336C49.2581 93.5493 49.5248 93.7093 49.8128 93.816C50.1008 93.912 50.3888 93.96 50.6768 93.96H53.2688ZM58.9488 96.808H56.8048V83.352H58.9488V96.808ZM51.4768 92.312C51.0715 92.312 50.7621 92.216 50.5488 92.024C50.3461 91.8213 50.2448 91.4587 50.2448 90.936V87.544C50.2448 87.3733 50.2768 87.2133 50.3408 87.064C50.4155 86.904 50.5061 86.7653 50.6128 86.648C50.7301 86.52 50.8635 86.424 51.0128 86.36C51.1621 86.2853 51.3168 86.248 51.4768 86.248H52.2768C52.4368 86.248 52.5861 86.2853 52.7248 86.36C52.8741 86.424 52.9968 86.52 53.0928 86.648C53.1995 86.7653 53.2848 86.904 53.3488 87.064C53.4128 87.2133 53.4448 87.3733 53.4448 87.544V90.936C53.4448 91.0853 53.4181 91.2453 53.3648 91.416C53.3221 91.576 53.2528 91.7253 53.1568 91.864C53.0608 91.992 52.9381 92.0987 52.7888 92.184C52.6501 92.2693 52.4795 92.312 52.2768 92.312H51.4768ZM68.9354 86.376V84.584H61.7034V86.376H64.1834C64.1941 86.536 64.1994 86.7653 64.1994 87.064C64.2101 87.352 64.1941 87.6773 64.1514 88.04C64.1194 88.4027 64.0554 88.7813 63.9594 89.176C63.8741 89.56 63.7354 89.9333 63.5434 90.296C63.3621 90.648 63.1221 90.968 62.8234 91.256C62.5248 91.544 62.1568 91.7627 61.7194 91.912V93.768C62.2528 93.672 62.7541 93.5013 63.2234 93.256C63.6288 93.0427 64.0288 92.7493 64.4234 92.376C64.8181 91.992 65.1168 91.48 65.3194 90.84C65.4154 91.1387 65.5381 91.4107 65.6874 91.656C65.8474 91.8907 66.0181 92.104 66.1994 92.296C66.3914 92.488 66.5888 92.6587 66.7914 92.808C66.9941 92.9573 67.1968 93.0853 67.3994 93.192C67.8688 93.448 68.3701 93.64 68.9034 93.768V91.912C68.4661 91.7627 68.0981 91.544 67.7994 91.256C67.5008 90.968 67.2554 90.648 67.0634 90.296C66.8714 89.9333 66.7221 89.56 66.6154 89.176C66.5194 88.7813 66.4501 88.4027 66.4074 88.04C66.3754 87.6773 66.3594 87.352 66.3594 87.064C66.3594 86.7653 66.3648 86.536 66.3754 86.376H68.9354ZM72.4874 96.792H70.3434V83.336H72.4874V96.792Z" fill="#1A2844"/>
<path d="M50 34H42L36 49L24 19L18 34H10" stroke="#FFB763" stroke-width="3" stroke-linecap="round" stroke-linejoin="round"/>
<path d="M64 60.0003V55.5559C64 53.1984 62.9464 50.9375 61.0711 49.2705C59.1957 47.6035 56.6522 46.667 54 46.667H34C31.3478 46.667 28.8043 47.6035 26.9289 49.2705C25.0536 50.9375 24 53.1984 24 55.5559V60.0003" fill="white"/>
<path d="M64 60.0003V55.5559C64 53.1984 62.9464 50.9375 61.0711 49.2705C59.1957 47.6035 56.6522 46.667 54 46.667H34C31.3478 46.667 28.8043 47.6035 26.9289 49.2705C25.0536 50.9375 24 53.1984 24 55.5559V60.0003" stroke="black" stroke-width="3" stroke-linecap="round" stroke-linejoin="round"/>
<path d="M44 41.7778C49.5228 41.7778 54 37.7981 54 32.8889C54 27.9797 49.5228 24 44 24C38.4772 24 34 27.9797 34 32.8889C34 37.7981 38.4772 41.7778 44 41.7778Z" fill="white" stroke="black" stroke-width="3" stroke-linecap="round" stroke-linejoin="round"/>
</svg>
