<svg width="75" height="98" viewBox="0 0 75 98" fill="none" xmlns="http://www.w3.org/2000/svg">
<rect x="1.5" y="1.5" width="72" height="72" rx="13.5" fill="#3EE476" stroke="#1A2844" stroke-width="3"/>
<path d="M18.3474 89.192H23.4994V90.968H10.9394V89.192H16.2674V88.04H12.5074V83.352H22.0754V85H14.7954V86.536H22.0754V88.04H18.3474V89.192ZM12.3954 92.12H22.2514V93.64C22.2407 94.0347 22.198 94.408 22.1234 94.76C22.0594 95.112 21.9847 95.4213 21.8994 95.688C21.8034 95.9973 21.6967 96.2853 21.5794 96.552H19.4514C19.6327 96.2 19.7714 95.864 19.8674 95.544C19.9634 95.2347 20.0327 94.9627 20.0754 94.728C20.118 94.4507 20.1394 94.1947 20.1394 93.96H12.3954V92.12ZM37.319 83.32V96.792H35.239V89.224H32.871V86.984H35.239V83.32H37.319ZM30.951 86.92C30.951 87.4213 30.9937 87.8853 31.079 88.312C31.1643 88.7387 31.303 89.1387 31.495 89.512C31.687 89.8853 31.943 90.2373 32.263 90.568C32.583 90.888 32.9777 91.1973 33.447 91.496V93.656C33.0203 93.4533 32.5937 93.208 32.167 92.92C31.8043 92.6747 31.4097 92.3653 30.983 91.992C30.567 91.608 30.183 91.1493 29.831 90.616C29.5217 91.1493 29.1483 91.608 28.711 91.992C28.2843 92.3653 27.8737 92.6747 27.479 92.92C27.0203 93.208 26.5457 93.4533 26.055 93.656V91.512C27.0043 91.032 27.687 90.4133 28.103 89.656C28.5297 88.888 28.743 87.976 28.743 86.92V84.744H30.951V86.92ZM39.8738 90.872H44.9938C45.1644 90.4667 45.2978 90.0987 45.3938 89.768C45.4898 89.4373 45.5644 89.1173 45.6178 88.808H40.7698V87.208H45.8098L45.8258 85.864H40.5138V84.12H47.8898V86.344C47.8898 86.8773 47.8524 87.3893 47.7778 87.88C47.7138 88.36 47.6338 88.8027 47.5378 89.208C47.4418 89.6133 47.3458 89.96 47.2498 90.248C47.1538 90.536 47.0791 90.744 47.0258 90.872H48.9458V92.648H44.9778V96.824H42.9298V92.648H39.8738V90.872ZM51.5858 96.792H49.5218V83.32H51.5858V96.792ZM55.0896 86.552V84.584H64.8816V86.552H61.6176C61.8203 86.9467 62.0496 87.2987 62.3056 87.608C62.5723 87.9067 62.855 88.1787 63.1536 88.424C63.4523 88.6693 63.767 88.8933 64.0976 89.096C64.4283 89.288 64.7696 89.4693 65.1216 89.64V91.336C64.6416 91.2507 64.1456 91.0907 63.6336 90.856C63.1323 90.6213 62.6523 90.344 62.1936 90.024C61.735 89.704 61.3136 89.3573 60.9296 88.984C60.5563 88.6 60.2523 88.2213 60.0176 87.848C59.7936 88.2747 59.447 88.696 58.9776 89.112C58.519 89.5173 58.0283 89.8853 57.5056 90.216C56.983 90.5467 56.471 90.824 55.9696 91.048C55.479 91.2613 55.095 91.3893 54.8176 91.432V89.608C55.6283 89.2773 56.327 88.8453 56.9136 88.312C57.511 87.7787 57.9803 87.192 58.3216 86.552H55.0896ZM66.0656 95.064V93.112H54.1456V95.064H66.0656Z" fill="#1A2844"/>
<path d="M37.5 60C49.9264 60 60 49.9264 60 37.5C60 25.0736 49.9264 15 37.5 15C25.0736 15 15 25.0736 15 37.5C15 49.9264 25.0736 60 37.5 60Z" fill="white" stroke="#1A2844" stroke-width="3" stroke-linecap="round" stroke-linejoin="round"/>
<path d="M30.9531 30.7503C31.4821 29.2466 32.5262 27.9785 33.9005 27.1709C35.2748 26.3632 36.8906 26.0679 38.4618 26.3374C40.0329 26.6069 41.458 27.4237 42.4845 28.6432C43.5111 29.8628 44.073 31.4062 44.0706 33.0003C44.0706 37.5003 37.3206 39.7503 37.3206 39.7503" fill="white"/>
<path d="M30.9531 30.7503C31.4821 29.2466 32.5262 27.9785 33.9005 27.1709C35.2748 26.3632 36.8906 26.0679 38.4618 26.3374C40.0329 26.6069 41.458 27.4237 42.4845 28.6432C43.5111 29.8628 44.073 31.4062 44.0706 33.0003C44.0706 37.5003 37.3206 39.7503 37.3206 39.7503" stroke="#1A2844" stroke-width="3" stroke-linecap="round" stroke-linejoin="round"/>
<path d="M37.5 48.75H37.5225" stroke="#1A2844" stroke-width="3" stroke-linecap="round" stroke-linejoin="round"/>
</svg>
