<svg width="75" height="75" viewBox="0 0 75 75" fill="none" xmlns="http://www.w3.org/2000/svg">
<rect x="1.5" y="1.5" width="72" height="72" rx="13.5" fill="#3EE476" stroke="#1A2844" stroke-width="3"/>
<path d="M37.5 60C49.9264 60 60 49.9264 60 37.5C60 25.0736 49.9264 15 37.5 15C25.0736 15 15 25.0736 15 37.5C15 49.9264 25.0736 60 37.5 60Z" fill="white" stroke="#1A2844" stroke-width="3" stroke-linecap="round" stroke-linejoin="round"/>
<path d="M30.9531 30.7503C31.4821 29.2466 32.5262 27.9785 33.9005 27.1709C35.2748 26.3632 36.8906 26.0679 38.4618 26.3374C40.0329 26.6069 41.458 27.4237 42.4845 28.6432C43.5111 29.8628 44.073 31.4062 44.0706 33.0003C44.0706 37.5003 37.3206 39.7503 37.3206 39.7503" fill="white"/>
<path d="M30.9531 30.7503C31.4821 29.2466 32.5262 27.9785 33.9005 27.1709C35.2748 26.3632 36.8906 26.0679 38.4618 26.3374C40.0329 26.6069 41.458 27.4237 42.4845 28.6432C43.5111 29.8628 44.073 31.4062 44.0706 33.0003C44.0706 37.5003 37.3206 39.7503 37.3206 39.7503" stroke="#1A2844" stroke-width="3" stroke-linecap="round" stroke-linejoin="round"/>
<path d="M37.5 48.75H37.5225" stroke="#1A2844" stroke-width="3" stroke-linecap="round" stroke-linejoin="round"/>
</svg>
