<?xml version="1.0" encoding="iso-8859-1"?>
<!-- Generator: Adobe Illustrator 18.0.0, SVG Export Plug-In . SVG Version: 6.00 Build 0)  -->
<!DOCTYPE svg PUBLIC "-//W3C//DTD SVG 1.1//EN" "http://www.w3.org/Graphics/SVG/1.1/DTD/svg11.dtd">
<svg version="1.1" id="Capa_1" xmlns="http://www.w3.org/2000/svg" xmlns:xlink="http://www.w3.org/1999/xlink" x="0px" y="0px"
	 viewBox="0 0 297 297" style="enable-background:new 0 0 297 297;" xml:space="preserve">
<path d="M245.429,297c4.805-15.557,28.774-96.044,28.774-125.043v-80.61c0-13.445-10.698-24.385-23.847-24.385
	c-13.148,0-23.847,10.939-23.847,24.385v25.655c0,1.86-1.511,3.373-3.373,3.373c-1.857,0-3.369-1.513-3.369-3.373V48.059
	c0-13.442-10.702-24.377-23.853-24.377c-13.148,0-23.845,10.935-23.845,24.377v50.631c0,1.86-1.511,3.372-3.371,3.372
	c-1.859,0-3.37-1.512-3.37-3.372V24.378C165.329,10.936,154.632,0,141.487,0c-13.15,0-23.849,10.936-23.849,24.378v55.995
	c0,1.859-1.514,3.373-3.372,3.373c-1.859,0-3.374-1.514-3.374-3.373V43.988c0-13.448-10.703-24.387-23.856-24.387
	c-13.148,0-23.847,10.939-23.847,24.387v108.266c0,1.858-1.511,3.374-3.372,3.374c-1.858,0-3.37-1.516-3.37-3.374V94.72H42.894
	c-18.56,0-20.097,16.871-20.097,35.67c0,33.13,0,78.503,23.071,121.738c5.128,9.611,18.629,34.583,24.198,44.872H245.429z"/>
<g>
</g>
<g>
</g>
<g>
</g>
<g>
</g>
<g>
</g>
<g>
</g>
<g>
</g>
<g>
</g>
<g>
</g>
<g>
</g>
<g>
</g>
<g>
</g>
<g>
</g>
<g>
</g>
<g>
</g>
</svg>
