<?xml version="1.0" encoding="iso-8859-1"?>
<!-- Generator: Adobe Illustrator 19.0.0, SVG Export Plug-In . SVG Version: 6.00 Build 0)  -->
<svg version="1.1" id="Capa_1" xmlns="http://www.w3.org/2000/svg" xmlns:xlink="http://www.w3.org/1999/xlink" x="0px" y="0px"
	 viewBox="0 0 512 512" style="enable-background:new 0 0 512 512;" xml:space="preserve">
<g>
	<g>
		<polygon points="325.3,80.547 70.745,335.113 176.8,441.168 431.366,186.613 		"/>
	</g>
</g>
<g>
	<g>
		<path d="M507.606,89.165L422.747,4.307c-5.625-5.625-15.586-5.625-21.211,0L346.51,59.336l106.066,106.066l55.029-55.026
			c2.813-2.813,4.395-6.621,4.395-10.605S510.418,91.978,507.606,89.165z"/>
	</g>
</g>
<g>
	<g>
		<path d="M49.534,356.324l-10.613,10.613c-1.787,1.787-3.105,3.999-3.809,6.431L0.586,492.737
			c-1.509,5.259-0.059,10.913,3.809,14.78c2.856,2.856,6.68,4.395,10.605,4.395c1.392,0,2.798-0.19,4.175-0.586l119.37-34.526
			c2.432-0.703,4.644-2.021,6.431-3.809l10.613-10.613L49.534,356.324z"/>
	</g>
</g>
<g>
</g>
<g>
</g>
<g>
</g>
<g>
</g>
<g>
</g>
<g>
</g>
<g>
</g>
<g>
</g>
<g>
</g>
<g>
</g>
<g>
</g>
<g>
</g>
<g>
</g>
<g>
</g>
<g>
</g>
</svg>
