<?xml version="1.0" encoding="UTF-8" standalone="no"?>
<svg
   xmlns:dc="http://purl.org/dc/elements/1.1/"
   xmlns:cc="http://creativecommons.org/ns#"
   xmlns:rdf="http://www.w3.org/1999/02/22-rdf-syntax-ns#"
   xmlns:svg="http://www.w3.org/2000/svg"
   xmlns="http://www.w3.org/2000/svg"
   viewBox="0 0 1375.7467 971.33331"
   height="971.33331"
   width="1375.7467"
   xml:space="preserve"
   id="svg2"
   version="1.1"><metadata
     id="metadata8"><rdf:RDF><cc:Work
         rdf:about=""><dc:format>image/svg+xml</dc:format><dc:type
           rdf:resource="http://purl.org/dc/dcmitype/StillImage" /></cc:Work></rdf:RDF></metadata><defs
     id="defs6"><clipPath
       id="clipPath18"
       clipPathUnits="userSpaceOnUse"><path
         id="path16"
         d="M 0,728.5 H 1031.81 V 0 H 0 Z" /></clipPath></defs><g
     transform="matrix(1.3333333,0,0,-1.3333333,0,971.33333)"
     id="g10"><g
       id="g12"><g
         clip-path="url(#clipPath18)"
         id="g14"><g
           transform="translate(548.3333,244.3146)"
           id="g20"><path
             id="path22"
             style="fill:#ffffff;fill-opacity:1;fill-rule:nonzero;stroke:none"
             d="m 0,0 -28.2,25.342 -35.505,61.451 c 0,0 -40.075,19.877 -47.188,53.059 -7.113,33.182 -16.736,73.959 11.226,108.667 27.962,34.707 40.883,76.525 126.442,68.762 85.558,-7.762 100.63,-30.876 117.892,-52.429 17.262,-21.553 32.666,-79.297 32.666,-95.149 0,-15.851 -11.532,-53.375 -19.433,-59.447 -7.9,-6.071 -24.233,-54.26 -24.233,-54.26 L 103,27.721 106.305,2.519 76,17.185 58.667,9.623 l -21,4.367 z" /></g><g
           transform="translate(310.6461,234.8824)"
           id="g24"><path
             id="path26"
             style="fill:#8bc673;fill-opacity:1;fill-rule:nonzero;stroke:none"
             d="M 0,0 16.657,-0.197 16.776,9.693 0.118,9.892 C -1.86,9.914 -2.491,9.402 -2.512,7.736 L -2.577,2.323 C -2.599,0.345 -1.979,0.025 0,0 m -13.589,-57.111 c -5.624,0.066 -8.71,3.227 -8.654,7.914 0.055,4.683 3.212,7.562 8.836,7.495 l 65.385,-0.775 c 12.599,-0.148 14.85,-3.301 14.708,-15.379 l -0.175,-14.679 -20.822,0.246 0.144,12.182 c 0.021,1.667 -0.597,2.298 -2.264,2.317 z m 50.458,66.567 -0.116,-9.89 23.113,-0.275 c 5.311,-0.063 7.245,-3.94 7.201,-7.48 -0.042,-3.54 -2.167,-7.055 -7.374,-6.993 l -25.922,0.308 -0.071,-5.831 29.152,-0.347 c 6.248,-0.074 8.599,-3.953 8.547,-8.119 -0.049,-4.163 -2.595,-8.09 -8.737,-8.018 l -80.17,0.952 c -6.145,0.072 -8.595,4.057 -8.546,8.223 0.05,4.166 2.49,7.986 8.737,7.912 l 29.986,-0.354 0.071,5.83 -22.7,0.271 c -11.035,0.129 -13.71,2.869 -13.587,13.384 l 0.148,12.391 c 0.125,10.515 2.867,13.399 13.902,13.268 l 68.301,-0.809 c 5.415,-0.065 7.245,-3.836 7.203,-7.376 C 65.962,12.757 63.94,9.133 58.63,9.198 Z" /></g><g
           transform="translate(401.1712,177.3696)"
           id="g28"><path
             id="path30"
             style="fill:#8bc673;fill-opacity:1;fill-rule:nonzero;stroke:none"
             d="m 0,0 c -5.624,0.066 -8.709,3.436 -8.652,8.121 0.055,4.685 3.218,7.878 8.842,7.81 l 65.383,-0.776 c 12.599,-0.15 14.846,-3.819 14.704,-15.898 l -0.186,-15.514 -20.822,0.247 0.153,13.014 c 0.021,1.667 -0.597,2.298 -2.264,2.319 z m 25.536,37.183 0.072,6.041 -18.847,0.224 c -11.867,0.14 -14.749,3.09 -14.616,14.438 l 0.104,8.747 c 0.135,11.348 3.089,14.438 14.958,14.298 L 73.32,80.146 c 5.832,-0.07 7.867,-4.05 7.821,-7.901 -0.045,-3.957 -2.279,-7.785 -8.007,-7.717 l -56.638,0.671 c -2.08,0.025 -2.816,-0.487 -2.839,-2.36 l -0.021,-1.667 c -0.022,-2.082 0.702,-2.508 2.782,-2.531 l 56.951,-0.677 c 5.728,-0.066 7.867,-4.048 7.822,-7.903 -0.046,-3.851 -2.38,-7.468 -8.002,-7.402 L 46.848,42.972 46.776,36.933 76.449,36.58 c 6.245,-0.073 8.596,-3.953 8.547,-8.117 -0.049,-4.167 -2.596,-7.988 -8.737,-7.916 l -80.171,0.952 c -6.143,0.072 -8.596,3.953 -8.545,8.119 0.049,4.164 2.488,7.988 8.735,7.914 z" /></g><g
           transform="translate(598.0583,544.0004)"
           id="g32"><path
             id="path34"
             style="fill:#eaeaea;fill-opacity:1;fill-rule:nonzero;stroke:none"
             d="m 0,0 c 0,0 -0.59,-0.063 -1.682,-0.201 -11.619,-1.479 -80.136,-11.725 -101.317,-49.851 -23.173,-41.711 -19.929,-78.786 -19.929,-78.786 0,0 -21.782,-16.686 -26.881,-28.502 -5.064,-11.74 -9.134,-11.272 -9.159,-11.224 -6.757,12.73 -16.221,35.319 -15.182,44.052 3.714,31.189 19.163,67.162 37.037,92.721 C -101.592,19 -43.967,25.726 12.728,11.735 18.426,10.33 36.133,8.521 39.741,3.707 40.437,2.779 -0.59,-0.063 -0.59,-0.063" /></g><g
           transform="translate(554.9788,559.5898)"
           id="g36"><path
             id="path38"
             style="fill:#141312;fill-opacity:1;fill-rule:nonzero;stroke:none"
             d="m 0,0 c -40.949,-2.273 -78.295,-23.193 -95.146,-53.296 l -1.797,-3.206 c -10.737,-19.143 -21.839,-38.936 -26.258,-60.336 -4.369,-21.172 -0.679,-43.843 10.671,-65.56 28.649,-54.803 55.339,-93.873 138.311,-97.455 45.486,-1.966 78.685,21.05 98.59,40.699 25.299,24.976 37.561,52.13 39.631,64.287 4.295,25.229 -2.087,103.695 -42.634,139.255 C 100.836,-17.609 72.719,-9.825 50.518,-5.057 30.403,-0.736 14.821,0.825 -0.002,0 Z m 31.207,-287.555 c -1.902,0 -3.819,0.042 -5.753,0.126 -86.85,3.748 -115.835,46.291 -144.706,101.518 -12.169,23.287 -16.105,47.7 -11.376,70.605 4.656,22.553 16.05,42.867 27.072,62.514 l 1.793,3.201 c 18.087,32.312 57.866,54.75 101.34,57.164 h 0.002 c 15.514,0.864 31.728,-0.745 52.53,-5.214 23.1,-4.962 52.412,-13.114 74.257,-32.267 39.989,-35.07 50.626,-113.839 45.113,-146.231 -5.351,-31.438 -56.334,-111.412 -140.272,-111.416" /></g><g
           transform="translate(559.7115,437.403)"
           id="g40"><path
             id="path42"
             style="fill:#141312;fill-opacity:1;fill-rule:nonzero;stroke:none"
             d="m 0,0 c 0,-4.224 -3.426,-7.649 -7.649,-7.649 -4.224,0 -7.648,3.425 -7.648,7.649 0,4.224 3.424,7.649 7.648,7.649 C -3.426,7.649 0,4.224 0,0" /></g><g
           transform="translate(642.3599,445.0521)"
           id="g44"><path
             id="path46"
             style="fill:#141312;fill-opacity:1;fill-rule:nonzero;stroke:none"
             d="m 0,0 c 0,-4.224 -3.426,-7.649 -7.649,-7.649 -4.226,0 -7.648,3.425 -7.648,7.649 0,4.224 3.422,7.649 7.648,7.649 C -3.426,7.649 0,4.224 0,0" /></g><g
           transform="translate(507.4167,391.036)"
           id="g48"><path
             id="path50"
             style="fill:#8bc673;fill-opacity:1;fill-rule:nonzero;stroke:none"
             d="m 0,0 89.277,-6.877 c 2.207,-0.171 4.445,0.108 6.561,0.815 l 72.916,24.38 c 9.988,3.339 20.178,-3.279 19.98,-12.979 l -1.899,-93.505 c -0.11,-5.355 -3.482,-10.311 -8.713,-12.806 l -76.456,-36.452 c -3.333,-1.589 -7.129,-2.032 -10.686,-1.247 l -98.79,21.827 c -6.716,1.483 -11.315,7.021 -11.183,13.464 l 1.836,89.002 C -16.985,-5.995 -9.002,0.694 0,0" /></g><g
           transform="translate(506.1389,387.293)"
           id="g52"><path
             id="path54"
             style="fill:#000000;fill-opacity:1;fill-rule:nonzero;stroke:none"
             d="m 0,0 c -3.155,0 -6.219,-1.162 -8.534,-3.261 -2.236,-2.027 -3.498,-4.674 -3.553,-7.452 l -1.836,-89.002 c -0.096,-4.613 3.28,-8.595 8.208,-9.683 l 98.792,-21.826 c 2.732,-0.604 5.658,-0.261 8.236,0.965 l 76.457,36.452 c 3.96,1.888 6.471,5.514 6.55,9.461 l 1.9,93.506 c 0.063,3.096 -1.331,5.853 -3.926,7.762 -3.066,2.256 -7.194,2.833 -11.06,1.542 L 98.318,-5.916 C 95.705,-6.79 93.001,-7.125 90.263,-6.915 L 0.988,-0.038 C 0.658,-0.013 0.328,0 0,0 m 95.754,-139.098 c -1.448,0 -2.895,0.154 -4.311,0.467 l -98.794,21.827 c -8.504,1.879 -14.327,8.97 -14.156,17.246 l 1.835,89.001 c 0.103,4.886 2.247,9.471 6.043,12.914 4.096,3.712 9.651,5.591 15.197,5.166 L 90.845,0.646 c 1.699,-0.132 3.444,0.088 5.068,0.632 l 72.917,24.379 c 6.19,2.073 12.908,1.092 17.957,-2.626 4.572,-3.361 7.127,-8.473 7.018,-14.025 l -1.9,-93.507 c -0.141,-6.832 -4.306,-13.02 -10.872,-16.151 l -76.458,-36.453 c -2.767,-1.318 -5.795,-1.993 -8.821,-1.993" /></g><g
           transform="translate(467.2069,403.9473)"
           id="g56"><path
             id="path58"
             style="fill:#ffffff;fill-opacity:1;fill-rule:nonzero;stroke:none"
             d="m 0,0 c -5.81,-4.458 -11.109,-9.835 -15.458,-15.716 -10.07,-13.612 -13.15,-36.681 -5.626,-52.109 2.789,-5.725 7.19,-10.524 12.032,-14.655 14.166,-12.089 33.807,-19.863 50.902,-8.805 2.842,1.839 5.564,4.19 6.719,7.373 3.504,9.655 -11.624,14.985 -17.819,18.576 -4.583,2.655 -9.281,5.135 -14.065,7.404 0,0 -5.098,2.086 -4.171,6.257 0.927,4.171 6.486,5.099 6.486,5.099" /></g><g
           transform="translate(491.1429,303.6039)"
           id="g60"><path
             id="path62"
             style="fill:#131211;fill-opacity:1;fill-rule:nonzero;stroke:none"
             d="m 0,0 c -11.503,0 -23.85,5.079 -35.449,14.977 -6.038,5.153 -10.284,10.347 -12.98,15.879 -7.899,16.2 -5.269,40.811 5.986,56.027 4.516,6.109 10.119,11.804 16.198,16.469 1.663,1.276 4.044,0.963 5.318,-0.7 1.274,-1.663 0.962,-4.042 -0.699,-5.318 -5.527,-4.238 -10.618,-9.412 -14.719,-14.962 -9.56,-12.924 -11.923,-34.542 -5.266,-48.194 2.228,-4.575 5.855,-8.97 11.083,-13.431 7.72,-6.585 27.684,-20.599 46.383,-8.504 2.834,1.833 4.541,3.629 5.214,5.483 1.634,4.499 -4.848,8.21 -12.222,11.93 -1.439,0.726 -2.801,1.413 -3.934,2.071 -4.507,2.61 -9.12,5.039 -13.707,7.22 -3.839,1.617 -7.432,5.58 -6.331,10.544 1.172,5.263 6.564,7.516 9.566,8.016 2.084,0.343 4.019,-1.054 4.364,-3.117 0.346,-2.067 -1.052,-4.02 -3.115,-4.365 -0.938,-0.172 -3.141,-0.967 -3.411,-2.18 -0.182,-0.815 1.602,-1.792 1.94,-1.938 C -0.825,43.56 3.999,41.019 8.714,38.289 9.7,37.718 10.927,37.102 12.266,36.427 19.744,32.654 32.263,26.336 28.198,15.138 26.939,11.67 24.249,8.64 19.973,5.876 13.889,1.938 7.103,0 0,0" /></g><g
           transform="translate(718.176,424.6002)"
           id="g64"><path
             id="path66"
             style="fill:#ffffff;fill-opacity:1;fill-rule:nonzero;stroke:none"
             d="m 0,0 c 5.808,-4.458 11.107,-9.835 15.458,-15.716 10.068,-13.61 13.148,-36.679 5.626,-52.109 -2.789,-5.723 -7.19,-10.524 -12.032,-14.655 -14.166,-12.089 -33.807,-19.863 -50.902,-8.803 -2.842,1.839 -5.566,4.188 -6.719,7.372 -3.506,9.654 11.623,14.986 17.819,18.575 4.583,2.655 9.281,5.135 14.065,7.404 0,0 5.098,2.086 4.171,6.257 -0.927,4.171 -6.486,5.099 -6.486,5.099" /></g><g
           transform="translate(694.2403,324.2578)"
           id="g68"><path
             id="path70"
             style="fill:#131211;fill-opacity:1;fill-rule:nonzero;stroke:none"
             d="m 0,0 c -7.104,0 -13.887,1.938 -19.973,5.876 -4.279,2.766 -6.97,5.798 -8.225,9.262 -4.067,11.2 8.456,17.516 15.938,21.291 1.337,0.675 2.562,1.289 3.546,1.858 4.706,2.726 9.529,5.267 14.34,7.55 l 0.187,0.083 c 0.306,0.133 2.09,1.108 1.908,1.925 -0.27,1.213 -2.473,2.008 -3.438,2.186 -2.048,0.375 -3.428,2.334 -3.068,4.386 0.359,2.053 2.296,3.429 4.344,3.09 3.002,-0.5 8.394,-2.753 9.566,-8.016 1.101,-4.966 -2.492,-8.929 -6.331,-10.544 -4.596,-2.186 -9.207,-4.615 -13.707,-7.222 -1.134,-0.656 -2.493,-1.343 -3.932,-2.067 -7.374,-3.72 -13.858,-7.433 -12.224,-11.932 0.671,-1.854 2.378,-3.648 5.214,-5.483 18.699,-12.099 38.663,1.917 46.383,8.504 5.226,4.461 8.853,8.854 11.083,13.431 6.655,13.652 4.292,35.27 -5.266,48.194 -4.105,5.551 -9.195,10.724 -14.719,14.962 -1.661,1.274 -1.973,3.655 -0.699,5.316 1.276,1.665 3.659,1.974 5.318,0.702 C 32.32,98.689 37.921,92.994 42.443,86.883 53.696,71.667 56.326,47.056 48.429,30.854 45.733,25.322 41.487,20.128 35.448,14.977 23.85,5.079 11.503,0 0,0" /></g><g
           transform="translate(550.1572,236.9415)"
           id="g72"><path
             id="path74"
             style="fill:#141312;fill-opacity:1;fill-rule:nonzero;stroke:none"
             d="m 0,0 -32.972,29.77 3.811,4.222 32.972,-29.77 z" /></g><g
           transform="translate(644.7061,244.8553)"
           id="g76"><path
             id="path78"
             style="fill:#141312;fill-opacity:1;fill-rule:nonzero;stroke:none"
             d="m 0,0 -21.562,13.794 3.066,4.793 L 3.066,4.791 Z" /></g><g
           transform="translate(584.2695,265.0044)"
           id="g80"><path
             id="path82"
             style="fill:#ffffff;fill-opacity:1;fill-rule:nonzero;stroke:none"
             d="m 0,0 c 0,-17.406 -8.921,-31.514 -19.927,-31.514 -11.005,0 -19.93,14.108 -19.93,31.514 0,17.406 8.925,31.514 19.93,31.514 C -8.921,31.514 0,17.406 0,0" /></g><g
           transform="translate(564.3424,292.7267)"
           id="g84"><path
             id="path86"
             style="fill:#131211;fill-opacity:1;fill-rule:nonzero;stroke:none"
             d="m 0,0 c -8.746,0 -16.137,-12.696 -16.137,-27.722 0,-15.028 7.391,-27.722 16.137,-27.722 8.745,0 16.135,12.694 16.135,27.722 C 16.135,-12.696 8.745,0 0,0 m 0,-63.028 c -13.303,0 -23.721,15.509 -23.721,35.306 0,19.798 10.418,35.306 23.721,35.306 13.301,0 23.72,-15.508 23.72,-35.306 0,-19.797 -10.419,-35.306 -23.72,-35.306" /></g><g
           transform="translate(674.5669,275.8289)"
           id="g88"><path
             id="path90"
             style="fill:#ffffff;fill-opacity:1;fill-rule:nonzero;stroke:none"
             d="m 0,0 c 0,-17.406 -8.921,-31.514 -19.929,-31.514 -11.005,0 -19.928,14.108 -19.928,31.514 0,17.406 8.923,31.514 19.928,31.514 C -8.921,31.514 0,17.406 0,0" /></g><g
           transform="translate(654.6379,303.5512)"
           id="g92"><path
             id="path94"
             style="fill:#131211;fill-opacity:1;fill-rule:nonzero;stroke:none"
             d="m 0,0 c -8.745,0 -16.135,-12.696 -16.135,-27.722 0,-15.026 7.39,-27.722 16.135,-27.722 8.746,0 16.137,12.696 16.137,27.722 C 16.137,-12.696 8.746,0 0,0 m 0,-63.028 c -13.301,0 -23.72,15.507 -23.72,35.306 0,19.798 10.419,35.306 23.72,35.306 13.303,0 23.721,-15.508 23.721,-35.306 0,-19.799 -10.418,-35.306 -23.721,-35.306" /></g><g
           transform="translate(611.7121,409.6688)"
           id="g96"><path
             id="path98"
             style="fill:#f8c8c6;fill-opacity:1;fill-rule:nonzero;stroke:none"
             d="m 0,0 c 0.654,-4.632 -4.93,-9.249 -12.468,-10.315 -7.543,-1.063 -14.185,1.826 -14.839,6.458 -0.654,4.632 4.928,9.251 12.468,10.315 C -7.298,7.523 -0.654,4.632 0,0" /></g><g
           transform="translate(600.0006,414.4543)"
           id="g100"><path
             id="path102"
             style="fill:#141312;fill-opacity:1;fill-rule:nonzero;stroke:none"
             d="m 0,0 c -0.935,0 -1.892,-0.068 -2.863,-0.205 -6.382,-0.9 -11.354,-4.643 -10.855,-8.172 0.499,-3.526 6.314,-5.749 12.696,-4.846 6.382,0.901 11.354,4.645 10.857,8.172 -0.3,2.11 -2.456,3.344 -3.716,3.892 C 4.361,-0.394 2.251,0 0,0 m -3.902,-17.222 c -7.173,0 -12.867,3.328 -13.572,8.314 -0.813,5.757 5.373,11.229 14.082,12.459 3.985,0.563 7.906,0.125 11.024,-1.232 3.43,-1.492 5.546,-3.923 5.957,-6.839 0.813,-5.757 -5.373,-11.229 -14.082,-12.457 -1.162,-0.165 -2.304,-0.245 -3.409,-0.245" /></g><g
           transform="translate(336.463,285.1675)"
           id="g104"><path
             id="path106"
             style="fill:#8bc673;fill-opacity:1;fill-rule:nonzero;stroke:none"
             d="m 0,0 c 0,-5.157 -4.181,-9.338 -9.338,-9.338 -5.159,0 -9.34,4.181 -9.34,9.338 0,5.157 4.181,9.338 9.34,9.338 C -4.181,9.338 0,5.157 0,0" /></g><g
           transform="translate(435.5168,287.8191)"
           id="g108"><path
             id="path110"
             style="fill:#8bc673;fill-opacity:1;fill-rule:nonzero;stroke:none"
             d="m 0,0 c 0,-5.157 -4.181,-9.34 -9.34,-9.34 -5.157,0 -9.338,4.183 -9.338,9.34 0,5.157 4.181,9.338 9.338,9.338 C -4.181,9.338 0,5.157 0,0" /></g><g
           transform="translate(537.158,162.9698)"
           id="g112"><path
             id="path114"
             style="fill:#8bc673;fill-opacity:1;fill-rule:nonzero;stroke:none"
             d="M 0,0 C 0.172,2.211 0.476,8.234 0.087,8.451 -0.131,8.667 -13.132,7.845 -15.515,7.497 l -0.477,3.685 c 3.466,0.476 19.156,1.561 19.849,0.996 0.65,-0.476 0.65,-8.971 0.52,-11.961 z m -10.662,32.592 c -2.816,0.259 -5.027,-0.087 -6.457,-1.128 -1.387,-1.342 -1.041,-3.769 -0.087,-4.897 0.606,-1.041 3.337,-1.604 6.457,-0.389 -0.649,1.905 -0.649,4.42 0.087,6.414 m -8.364,-9.752 c -3.034,0.781 -4.247,8.582 -1.127,11.831 1.647,1.733 7.801,2.557 12.656,1.128 2.774,1.039 7.54,1.255 11.961,-0.348 L 3.379,31.942 c -4.203,0.909 -7.669,0.735 -9.576,-0.607 -1.43,-1.128 -0.867,-3.902 0.303,-4.681 1.213,-1.257 6.803,-0.737 10.488,1.083 L 5.764,24.53 C 3.598,22.797 -1.083,21.93 -4.594,22.234 -4.549,20.803 -4.509,18.853 -4.638,18.029 0.52,18.42 8.017,18.766 9.882,19.07 L 9.925,15.385 C 5.286,14.822 -18.723,13.739 -22.797,13.696 l -0.13,3.813 c 1.387,-0.087 10.229,0.216 13.956,0.391 0.13,0.909 -0.045,3.553 0,4.984 -2.818,-1.17 -7.803,-1.474 -10.055,-0.044" /></g><g
           transform="translate(573.1403,162.9698)"
           id="g116"><path
             id="path118"
             style="fill:#8bc673;fill-opacity:1;fill-rule:nonzero;stroke:none"
             d="M 0,0 C 0.174,2.211 0.476,8.234 0.087,8.451 -0.13,8.667 -13.132,7.845 -15.516,7.497 l -0.476,3.685 c 3.468,0.476 19.156,1.561 19.849,0.996 0.65,-0.476 0.65,-8.971 0.52,-11.961 z m -10.662,32.592 c -2.816,0.259 -5.027,-0.087 -6.458,-1.128 -1.387,-1.342 -1.039,-3.769 -0.085,-4.897 0.605,-1.041 3.336,-1.604 6.456,-0.389 -0.649,1.905 -0.649,4.42 0.087,6.414 m -8.363,-9.752 c -3.035,0.781 -4.248,8.582 -1.128,11.831 1.646,1.733 7.801,2.557 12.656,1.128 2.774,1.039 7.54,1.255 11.961,-0.348 L 3.381,31.942 c -4.205,0.909 -7.671,0.735 -9.578,-0.607 -1.432,-1.128 -0.867,-3.902 0.303,-4.681 1.213,-1.257 6.803,-0.737 10.488,1.083 L 5.764,24.53 C 3.598,22.797 -1.083,21.93 -4.594,22.234 -4.551,20.803 -4.507,18.853 -4.638,18.029 0.52,18.42 8.017,18.766 9.882,19.07 L 9.925,15.385 C 5.288,14.822 -18.723,13.739 -22.797,13.696 l -0.13,3.813 c 1.387,-0.087 10.229,0.216 13.956,0.391 0.13,0.909 -0.045,3.553 0,4.984 -2.818,-1.17 -7.801,-1.474 -10.054,-0.044" /></g><g
           transform="translate(612.6351,176.0588)"
           id="g120"><path
             id="path122"
             style="fill:#8bc673;fill-opacity:1;fill-rule:nonzero;stroke:none"
             d="m 0,0 c 0,3.64 0.217,17.596 0.346,20.716 l 4.639,-0.174 c 0,-1.343 -0.304,-4.594 -0.434,-7.151 1.993,0.087 4.853,-0.13 6.457,0.131 L 10.921,9.88 C 8.928,9.621 6.284,9.621 4.636,9.621 4.42,7.238 4.333,2.079 4.203,0.13 Z m -9.752,-12.915 c -3.207,1.17 -2.6,7.888 -0.867,11.787 l 4.118,-0.822 c -1.431,-4.16 -1.82,-7.586 -0.563,-7.845 1.17,-0.607 6.718,-0.996 11.571,1.603 l 1.387,-3.249 C 2.383,-14.259 -6.631,-14.78 -9.752,-12.915 m -0.606,20.37 c -0.087,1.862 -2.211,3.51 -5.331,3.51 -2.99,0 -5.027,-1.387 -5.027,-3.381 0,-1.907 2.037,-3.423 5.027,-3.423 3.12,0 5.331,1.342 5.331,3.294 m 3.9,0.346 c 0,-3.685 -3.9,-6.934 -9.231,-6.934 -5.288,0 -9.058,3.249 -9.058,6.934 0,3.685 4.031,6.327 9.058,6.327 5.07,0 9.231,-2.642 9.231,-6.327 m -11.658,11.182 -0.259,4.16 3.812,0.259 0.217,-4.16 c 3.207,-0.043 6.242,-0.259 8.452,-0.737 l -0.564,-3.466 c -4.074,0.996 -13.132,0.909 -18.896,-0.521 l -0.65,3.25 c 1.691,0.737 5.418,1.085 7.888,1.215" /></g><g
           transform="translate(658.9791,162.9698)"
           id="g124"><path
             id="path126"
             style="fill:#8bc673;fill-opacity:1;fill-rule:nonzero;stroke:none"
             d="M 0,0 C 0.174,2.211 0.476,8.234 0.087,8.451 -0.13,8.667 -13.132,7.845 -15.515,7.497 l -0.477,3.685 c 3.468,0.476 19.156,1.561 19.849,0.996 0.65,-0.476 0.65,-8.971 0.52,-11.961 z m -15.95,22.536 c -3.466,0.607 -4.81,8.191 -1.733,12.439 1.691,1.778 15.126,3.12 20.414,0.737 L 1.82,32.418 c -4.16,0.911 -14.042,0.737 -15.95,-0.607 -1.255,-1.343 -1.125,-4.637 0.045,-5.416 0.779,-1.345 11.224,-1.258 16.642,0.996 l 1.126,-3.294 c -1.3,-1.083 -4.637,-1.733 -8.277,-2.037 0.043,-1.429 0.087,-3.251 -0.044,-4.031 5.158,0.391 12.655,0.737 14.52,1.041 L 9.925,15.385 C 5.286,14.822 -18.723,13.739 -22.797,13.696 l -0.13,3.813 c 1.387,-0.087 10.229,0.216 13.956,0.391 0.13,0.692 0.043,2.512 0,3.943 -2.948,0 -5.634,0.217 -6.979,0.693" /></g><g
           transform="translate(698.6442,168.5172)"
           id="g128"><path
             id="path130"
             style="fill:#8bc673;fill-opacity:1;fill-rule:nonzero;stroke:none"
             d="m 0,0 c 0,1.561 -0.043,8.149 0,10.836 -3.337,-0.174 -7.93,-0.478 -9.534,-0.565 l 0.044,3.642 c 1.734,0.085 6.457,0.433 9.534,0.692 0.13,2.384 0.26,7.064 0.347,8.279 L 4.942,22.71 C 4.768,20.932 4.292,3.685 4.205,0.217 Z m -7.886,1.431 c -4.031,3.944 -9.406,6.935 -11.486,8.06 -1.04,-1.994 -2.601,-6.371 -2.947,-9.1 l -4.203,1.603 c 0.346,4.42 5.33,16.989 7.887,19.936 l 4.074,-1.735 c -0.954,-1.733 -2.687,-4.332 -3.294,-6.586 3.294,-1.994 9.232,-5.288 12.091,-8.799 z" /></g></g></g></g></svg>