<svg width="99" height="57" viewBox="0 0 99 57" fill="none" xmlns="http://www.w3.org/2000/svg">
<path d="M53.0306 53.4791C51.0791 55.4252 47.9208 55.4252 45.9693 53.4791L15.1958 22.7904C12.0393 19.6426 14.2686 14.25 18.7264 14.25L80.2736 14.25C84.7314 14.25 86.9607 19.6426 83.8042 22.7904L53.0306 53.4791Z" fill="#3E6F7A" fill-opacity="0.7"/>
<path d="M42.5 26.5C41.125 26.5 40 27.625 40 29C40 30.375 41.125 31.5 42.5 31.5C43.875 31.5 45 30.375 45 29C45 27.625 43.875 26.5 42.5 26.5ZM57.5 26.5C56.125 26.5 55 27.625 55 29C55 30.375 56.125 31.5 57.5 31.5C58.875 31.5 60 30.375 60 29C60 27.625 58.875 26.5 57.5 26.5ZM50 26.5C48.625 26.5 47.5 27.625 47.5 29C47.5 30.375 48.625 31.5 50 31.5C51.375 31.5 52.5 30.375 52.5 29C52.5 27.625 51.375 26.5 50 26.5Z" fill="white"/>
</svg>
