<svg width="1380" height="930" viewBox="0 0 1380 930" fill="none" xmlns="http://www.w3.org/2000/svg">
<rect width="1380" height="930" rx="50" fill="#DADADA"/>
<rect x="15" y="15" width="1350" height="900" rx="50" fill="url(#paint0_linear)"/>
<mask id="mask0" mask-type="alpha" maskUnits="userSpaceOnUse" x="15" y="15" width="1350" height="900">
<rect x="15" y="15" width="1350" height="900" rx="50" fill="#A6D6CD"/>
</mask>
<g mask="url(#mask0)">
<path d="M228 551C84 547 -12.6667 491 -74 465L-90 1091H1470V475C1424.67 509 1356 551 1260 523C1164 495 1152 465 1032 465C912 465 928 523 786 523C644 523 660 465 532 465C404 465 372 555 228 551Z" fill="url(#paint1_linear)"/>
</g>
<rect x="149" y="107" width="1082" height="760" rx="20" fill="#FFFDF2" fill-opacity="0.6"/>
<rect x="215" y="64" width="152" height="43" rx="10" fill="#668D8D"/>
<rect x="215" y="75" width="152" height="32" fill="#668D8D"/>
<path d="M264.656 82.64H261.016C261.202 83.1733 261.482 83.6667 261.856 84.12C262.229 84.56 262.609 84.94 262.996 85.26C263.436 85.6467 263.909 85.9933 264.416 86.3V88.82C263.829 88.6333 263.269 88.34 262.736 87.94C262.216 87.54 261.756 87.1333 261.356 86.72C260.889 86.24 260.456 85.72 260.056 85.16C259.722 85.8 259.282 86.3533 258.736 86.82C258.202 87.2733 257.682 87.6467 257.176 87.94C256.562 88.2867 255.929 88.58 255.276 88.82V86.42C255.862 86.14 256.369 85.8333 256.796 85.5C257.222 85.1533 257.582 84.8133 257.876 84.48C258.169 84.1333 258.402 83.8 258.576 83.48C258.749 83.16 258.882 82.88 258.976 82.64H255.036V80.3H264.656V82.64ZM269.336 79.4V89.72H266.996V85.72H264.636V83.36H266.996V79.4H269.336ZM257.576 95.84V90.3H260.136V93.52H269.556V95.84H257.576ZM272.758 81.04H279.958V87.9H275.598V90.76H280.558V92.86H272.978V85.54H277.578V83.4H272.758V81.04ZM285.798 79.62H288.238V96.06H285.798V87.6H284.138L284.178 96.06H281.638V79.62H284.138V85.06H285.798V79.62ZM307.118 86.84V89.18H291.438V86.84H298.018V85.46H293.218V79.44H305.538V81.56H295.978V83.54H305.538V85.46H300.698V86.84H307.118ZM302.838 90.34C303.251 90.34 303.638 90.3933 303.998 90.5C304.358 90.5933 304.665 90.74 304.918 90.94C305.185 91.14 305.391 91.3867 305.538 91.68C305.698 91.9733 305.778 92.3067 305.778 92.68V94.04C305.778 94.36 305.705 94.6533 305.558 94.92C305.425 95.2 305.238 95.44 304.998 95.64C304.758 95.84 304.478 95.9933 304.158 96.1C303.838 96.2067 303.491 96.26 303.118 96.26H295.758C295.438 96.26 295.118 96.2067 294.798 96.1C294.478 95.9933 294.191 95.84 293.938 95.64C293.685 95.4533 293.478 95.22 293.318 94.94C293.171 94.6733 293.098 94.3667 293.098 94.02V92.68C293.098 92.28 293.198 91.9333 293.398 91.64C293.598 91.3467 293.845 91.1067 294.138 90.92C294.445 90.72 294.778 90.5733 295.138 90.48C295.511 90.3867 295.858 90.34 296.178 90.34H302.838ZM296.858 92.54C296.458 92.54 296.171 92.62 295.998 92.78C295.838 92.9267 295.758 93.0733 295.758 93.22V93.56C295.758 93.8667 295.851 94.06 296.038 94.14C296.238 94.22 296.511 94.26 296.858 94.26H302.398C302.651 94.26 302.871 94.2133 303.058 94.12C303.245 94.0267 303.338 93.8733 303.338 93.66V93.3C303.338 93.0867 303.251 92.9067 303.078 92.76C302.905 92.6133 302.685 92.54 302.418 92.54H296.858ZM322.093 79.4H324.893V84.06H326.973V86.7H324.893V96.24H322.093V93.22H310.313V90.88H314.353V89.18H314.233C313.873 89.18 313.526 89.1067 313.193 88.96C312.86 88.8133 312.56 88.6133 312.293 88.36C312.04 88.1067 311.833 87.8133 311.673 87.48C311.526 87.1467 311.453 86.7867 311.453 86.4V84.04C311.453 83.7333 311.5 83.4333 311.593 83.14C311.7 82.8467 311.846 82.5867 312.033 82.36H310.553V80.46H314.113V79.14H316.993V80.46H320.693V82.36H318.993C319.18 82.5867 319.32 82.8467 319.413 83.14C319.52 83.42 319.573 83.72 319.573 84.04V86.4C319.573 86.7733 319.5 87.1267 319.353 87.46C319.206 87.7933 319.013 88.0867 318.773 88.34C318.533 88.5933 318.246 88.7933 317.913 88.94C317.593 89.0867 317.253 89.1667 316.893 89.18V90.88H322.093V79.4ZM317.133 85.84V84.6C317.133 84.2533 317.026 83.9667 316.813 83.74C316.6 83.5133 316.32 83.4 315.973 83.4H315.093C314.746 83.4 314.446 83.5133 314.193 83.74C313.953 83.9667 313.833 84.2533 313.833 84.6V85.84C313.833 86.1867 313.953 86.48 314.193 86.72C314.446 86.9467 314.746 87.06 315.093 87.06H315.973C316.32 87.06 316.6 86.9467 316.813 86.72C317.026 86.48 317.133 86.1867 317.133 85.84Z" fill="white"/>
<rect x="377" y="64" width="152" height="43" rx="10" fill="#83B1B1"/>
<rect x="377" y="75" width="152" height="32" fill="#83B1B1"/>
<path d="M421.648 80.72V83.16C421.648 84.4667 421.548 85.5933 421.348 86.54C421.148 87.4733 420.921 88.2533 420.668 88.88C420.415 89.4933 420.168 89.96 419.928 90.28C419.688 90.6 419.535 90.8 419.468 90.88H422.948V79.4H425.748V84.06H427.628V86.7H425.748V96.24H422.948V93.22H410.768V90.88H414.408V87.68H416.548V90.88H416.988C417.375 90.1467 417.681 89.3933 417.908 88.62C418.135 87.8467 418.301 87.1067 418.408 86.4C418.528 85.6933 418.601 85.0533 418.628 84.48C418.668 83.8933 418.688 83.4267 418.688 83.08H411.828V80.72H421.648ZM436.794 80.56H440.014V82.4H438.574C438.801 82.64 438.981 82.92 439.114 83.24C439.248 83.56 439.314 83.8933 439.314 84.24V86.32C439.314 86.7467 439.241 87.1333 439.094 87.48C438.948 87.8267 438.754 88.1333 438.514 88.4C438.274 88.6533 437.994 88.8533 437.674 89C437.354 89.1333 437.014 89.2 436.654 89.2H434.174C433.814 89.2 433.474 89.1333 433.154 89C432.834 88.8533 432.548 88.66 432.294 88.42C432.054 88.18 431.861 87.9 431.714 87.58C431.568 87.2467 431.494 86.8933 431.494 86.52V84.24C431.494 83.8933 431.561 83.56 431.694 83.24C431.828 82.92 432.008 82.64 432.234 82.4H430.834V80.56H434.054V79.42H436.794V80.56ZM432.194 90.32H444.234V92.6C444.208 93.0933 444.154 93.56 444.074 94C443.994 94.44 443.901 94.8267 443.794 95.16C443.674 95.5467 443.548 95.9067 443.414 96.24H440.954C441.181 95.8 441.354 95.36 441.474 94.92C441.594 94.4933 441.681 94.1067 441.734 93.76C441.788 93.36 441.814 92.9733 441.814 92.6H432.194V90.32ZM446.414 82.82V85.18H444.154V88.68H441.774V79.4H444.154V82.82H446.414ZM436.994 86.04V84.76C436.994 84.44 436.888 84.1733 436.674 83.96C436.461 83.7467 436.188 83.64 435.854 83.64H435.014C434.694 83.64 434.408 83.7467 434.154 83.96C433.914 84.1733 433.794 84.44 433.794 84.76V86.04C433.794 86.3733 433.881 86.6467 434.054 86.86C434.241 87.0733 434.494 87.18 434.814 87.18H435.934C436.268 87.18 436.528 87.0733 436.714 86.86C436.901 86.6467 436.994 86.3733 436.994 86.04ZM456.912 80.44L452.772 95.02H449.972L454.212 80.44H456.912ZM466.39 80.28H469.65V82.14H468.83C468.91 82.34 468.95 82.5467 468.95 82.76V84.42C468.95 84.7133 468.877 84.9933 468.73 85.26C468.597 85.5133 468.41 85.74 468.17 85.94C467.93 86.14 467.65 86.3 467.33 86.42C467.023 86.5267 466.69 86.58 466.33 86.58H466.31V87.62H470.87V79.42H473.45V82.68H475.53V85.02H473.45V90.58H470.87V89.72H460.01V87.62L463.67 87.58V86.58C463.323 86.5667 462.997 86.5 462.69 86.38C462.383 86.26 462.11 86.1067 461.87 85.92C461.643 85.72 461.457 85.4933 461.31 85.24C461.177 84.9867 461.11 84.72 461.11 84.44V82.76C461.11 82.5467 461.15 82.34 461.23 82.14H460.37V80.28H463.63V78.94H466.39V80.28ZM473.75 96.02H461.51V90.8H464.07V93.68H473.75V96.02ZM466.45 83.18C466.45 82.9133 466.37 82.6933 466.21 82.52C466.05 82.3467 465.803 82.26 465.47 82.26H464.65C464.33 82.26 464.077 82.34 463.89 82.5C463.703 82.66 463.61 82.8733 463.61 83.14V83.94C463.61 84.1933 463.697 84.4133 463.87 84.6C464.043 84.7733 464.29 84.86 464.61 84.86H465.29C465.623 84.86 465.897 84.8067 466.11 84.7C466.337 84.5933 466.45 84.4067 466.45 84.14V83.18ZM490.829 90.46C491.149 90.46 491.449 90.5133 491.729 90.62C492.022 90.7133 492.276 90.86 492.489 91.06C492.716 91.2467 492.896 91.4733 493.029 91.74C493.162 91.9933 493.229 92.28 493.229 92.6V94.28C493.229 94.8533 493.016 95.3267 492.589 95.7C492.176 96.0733 491.662 96.26 491.049 96.26H483.029C482.709 96.26 482.409 96.2067 482.129 96.1C481.862 96.0067 481.629 95.8733 481.429 95.7C481.229 95.5267 481.069 95.3133 480.949 95.06C480.842 94.82 480.789 94.56 480.789 94.28V92.6C480.789 92.2133 480.876 91.8867 481.049 91.62C481.222 91.34 481.436 91.12 481.689 90.96C481.956 90.7867 482.242 90.66 482.549 90.58C482.856 90.5 483.142 90.46 483.409 90.46H490.829ZM486.909 82.32C486.896 83.4 486.782 84.32 486.569 85.08C486.369 85.84 486.136 86.4667 485.869 86.96C485.562 87.5333 485.216 88.0133 484.829 88.4H482.149C482.602 87.92 482.962 87.4 483.229 86.84C483.496 86.2667 483.696 85.7067 483.829 85.16C483.976 84.6 484.069 84.08 484.109 83.6C484.149 83.12 484.169 82.7267 484.169 82.42H478.729V80.26H486.869L486.909 82.32ZM493.169 79.4V89.56H490.689V87.06H488.689V84.96H490.689V83.54H488.689V81.46H490.689V79.4H493.169ZM484.489 92.62C484.102 92.62 483.836 92.6867 483.689 92.82C483.556 92.94 483.456 93.0667 483.389 93.2V93.74C483.509 94.0067 483.656 94.1667 483.829 94.22C484.016 94.2733 484.242 94.3 484.509 94.3H489.949C490.189 94.3 490.396 94.2533 490.569 94.16C490.756 94.08 490.849 93.94 490.849 93.74V93.36C490.849 93.16 490.756 92.9867 490.569 92.84C490.396 92.6933 490.189 92.62 489.949 92.62H484.489Z" fill="white"/>
<rect x="539" y="64" width="152" height="43" rx="10" fill="#83B1B1"/>
<rect x="539" y="75" width="152" height="32" fill="#83B1B1"/>
<path d="M588.974 89.34H582.974V92.1H580.514V89.34H573.914V87.12H588.974V89.34ZM575.434 96.02V90.62H577.894V93.66H587.834V96.02H575.434ZM587.174 79.44V85.78H575.754V79.44H587.174ZM584.974 81.52H577.994V83.72H584.974V81.52ZM603.964 79.4H606.764V84.06H608.844V86.7H606.764V96.24H603.964V93.22H592.184V90.88H596.224V89.18H596.104C595.744 89.18 595.397 89.1067 595.064 88.96C594.731 88.8133 594.431 88.6133 594.164 88.36C593.911 88.1067 593.704 87.8133 593.544 87.48C593.397 87.1467 593.324 86.7867 593.324 86.4V84.04C593.324 83.7333 593.371 83.4333 593.464 83.14C593.571 82.8467 593.717 82.5867 593.904 82.36H592.424V80.46H595.984V79.14H598.864V80.46H602.564V82.36H600.864C601.051 82.5867 601.191 82.8467 601.284 83.14C601.391 83.42 601.444 83.72 601.444 84.04V86.4C601.444 86.7733 601.371 87.1267 601.224 87.46C601.077 87.7933 600.884 88.0867 600.644 88.34C600.404 88.5933 600.117 88.7933 599.784 88.94C599.464 89.0867 599.124 89.1667 598.764 89.18V90.88H603.964V79.4ZM599.004 85.84V84.6C599.004 84.2533 598.897 83.9667 598.684 83.74C598.471 83.5133 598.191 83.4 597.844 83.4H596.964C596.617 83.4 596.317 83.5133 596.064 83.74C595.824 83.9667 595.704 84.2533 595.704 84.6V85.84C595.704 86.1867 595.824 86.48 596.064 86.72C596.317 86.9467 596.617 87.06 596.964 87.06H597.844C598.191 87.06 598.471 86.9467 598.684 86.72C598.897 86.48 599.004 86.1867 599.004 85.84ZM619.336 80.44L615.196 95.02H612.396L616.636 80.44H619.336ZM626.974 92.7H625.814C625.454 92.7 625.074 92.6467 624.674 92.54C624.287 92.4333 623.927 92.2467 623.594 91.98C623.261 91.7133 622.981 91.3667 622.754 90.94C622.541 90.5 622.434 89.9467 622.434 89.28V84.04C622.434 83.5067 622.514 83.02 622.674 82.58C622.847 82.14 623.074 81.76 623.354 81.44C623.634 81.12 623.961 80.8667 624.334 80.68C624.721 80.4933 625.127 80.4 625.554 80.4L626.894 80.38C627.387 80.3667 627.834 80.4467 628.234 80.62C628.647 80.7933 628.994 81.0333 629.274 81.34C629.567 81.6467 629.787 82.02 629.934 82.46C630.094 82.9 630.174 83.3867 630.174 83.92V89.16C630.174 89.68 630.081 90.1533 629.894 90.58C629.721 91.0067 629.481 91.3733 629.174 91.68C628.881 91.9867 628.541 92.2333 628.154 92.42C627.767 92.5933 627.374 92.6867 626.974 92.7ZM626.134 90.58L626.414 90.54C626.667 90.54 626.881 90.4867 627.054 90.38C627.227 90.26 627.367 90.1133 627.474 89.94C627.594 89.7667 627.674 89.5733 627.714 89.36C627.767 89.1467 627.794 88.94 627.794 88.74V84.38C627.794 83.94 627.687 83.56 627.474 83.24C627.261 82.92 626.947 82.76 626.534 82.76H626.074C625.674 82.76 625.361 82.9333 625.134 83.28C624.907 83.6133 624.794 84.0067 624.794 84.46V88.82C624.794 88.9667 624.814 89.1467 624.854 89.36C624.907 89.56 624.981 89.7533 625.074 89.94C625.181 90.1133 625.321 90.2667 625.494 90.4C625.667 90.52 625.881 90.58 626.134 90.58ZM635.814 79.42H637.894V96.24H635.814V79.42ZM632.374 83.24V79.42H634.654V96.24H632.374V90.5H630.734V88.2H632.374V85.52H630.734V83.24H632.374ZM656.094 86.14H641.094V88.04H647.294V89.12H642.294V90.94H651.854V91.86H642.294V96.24L654.714 96.26V94.38H644.934V93.6H654.714V89.12H649.894V88.04H656.094V86.14ZM650.234 79.38V79.98C650.234 80.3267 650.361 80.6933 650.614 81.08C650.867 81.4533 651.214 81.8133 651.654 82.16C652.107 82.4933 652.641 82.7867 653.254 83.04C653.867 83.2933 654.527 83.4733 655.234 83.58V85.58C654.781 85.5 654.241 85.38 653.614 85.22C652.987 85.06 652.361 84.8467 651.734 84.58C651.121 84.3133 650.541 83.9867 649.994 83.6C649.461 83.2133 649.061 82.7467 648.794 82.2C648.634 82.5867 648.387 82.9333 648.054 83.24C647.734 83.5467 647.361 83.8267 646.934 84.08C646.521 84.32 646.081 84.5267 645.614 84.7C645.147 84.8733 644.694 85.0267 644.254 85.16C643.814 85.28 643.414 85.3733 643.054 85.44C642.694 85.5067 642.414 85.5533 642.214 85.58V83.44C642.947 83.3867 643.627 83.2467 644.254 83.02C644.894 82.78 645.447 82.5 645.914 82.18C646.394 81.8467 646.767 81.4867 647.034 81.1C647.314 80.7 647.454 80.32 647.454 79.96V79.38H650.234Z" fill="white"/>
<rect x="701" y="64" width="152" height="43" rx="10" fill="#83B1B1"/>
<rect x="701" y="75" width="152" height="32" fill="#83B1B1"/>
<path d="M751.454 86.84V89.18H735.774V86.84H742.354V85.46H737.554V79.44H749.874V81.56H740.314V83.54H749.874V85.46H745.034V86.84H751.454ZM747.174 90.34C747.587 90.34 747.974 90.3933 748.334 90.5C748.694 90.5933 749 90.74 749.254 90.94C749.52 91.14 749.727 91.3867 749.874 91.68C750.034 91.9733 750.114 92.3067 750.114 92.68V94.04C750.114 94.36 750.04 94.6533 749.894 94.92C749.76 95.2 749.574 95.44 749.334 95.64C749.094 95.84 748.814 95.9933 748.494 96.1C748.174 96.2067 747.827 96.26 747.454 96.26H740.094C739.774 96.26 739.454 96.2067 739.134 96.1C738.814 95.9933 738.527 95.84 738.274 95.64C738.02 95.4533 737.814 95.22 737.654 94.94C737.507 94.6733 737.434 94.3667 737.434 94.02V92.68C737.434 92.28 737.534 91.9333 737.734 91.64C737.934 91.3467 738.18 91.1067 738.474 90.92C738.78 90.72 739.114 90.5733 739.474 90.48C739.847 90.3867 740.194 90.34 740.514 90.34H747.174ZM741.194 92.54C740.794 92.54 740.507 92.62 740.334 92.78C740.174 92.9267 740.094 93.0733 740.094 93.22V93.56C740.094 93.8667 740.187 94.06 740.374 94.14C740.574 94.22 740.847 94.26 741.194 94.26H746.734C746.987 94.26 747.207 94.2133 747.394 94.12C747.58 94.0267 747.674 93.8733 747.674 93.66V93.3C747.674 93.0867 747.587 92.9067 747.414 92.76C747.24 92.6133 747.02 92.54 746.754 92.54H741.194ZM765.329 79.78C765.635 79.78 765.982 79.8467 766.369 79.98C766.755 80.1133 767.115 80.3067 767.449 80.56C767.795 80.8 768.082 81.0933 768.309 81.44C768.535 81.7867 768.649 82.1667 768.649 82.58V83.96C768.649 84.3333 768.555 84.6867 768.369 85.02C768.182 85.34 767.929 85.62 767.609 85.86C767.289 86.1 766.915 86.2867 766.489 86.42C766.075 86.5533 765.629 86.62 765.149 86.62H759.309C758.869 86.62 758.455 86.5533 758.069 86.42C757.695 86.2733 757.362 86.0867 757.069 85.86C756.775 85.6333 756.535 85.3667 756.349 85.06C756.162 84.7533 756.035 84.44 755.969 84.12V82.4C756.022 82.0133 756.149 81.66 756.349 81.34C756.562 81.02 756.815 80.7467 757.109 80.52C757.402 80.28 757.715 80.1 758.049 79.98C758.382 79.8467 758.702 79.78 759.009 79.78H765.329ZM769.789 91.8V94.44H754.649V91.8H759.049V87.36H761.489V91.8H763.189V87.36H765.389V91.8H769.789ZM764.849 84.68C765.035 84.68 765.209 84.6467 765.369 84.58C765.542 84.5 765.689 84.4 765.809 84.28C765.929 84.1467 766.022 84 766.089 83.84C766.169 83.6667 766.209 83.4933 766.209 83.32C766.209 82.96 766.075 82.6467 765.809 82.38C765.542 82.1133 765.222 81.98 764.849 81.98H759.709C759.322 81.98 758.995 82.1133 758.729 82.38C758.462 82.6467 758.329 82.96 758.329 83.32C758.329 83.6667 758.449 83.98 758.689 84.26C758.942 84.54 759.282 84.68 759.709 84.68H764.849ZM780.296 80.44L776.156 95.02H773.356L777.596 80.44H780.296ZM799.075 86.84V89.18H783.395V86.84H789.975V85.46H785.175V79.44H797.495V81.56H787.935V83.54H797.495V85.46H792.655V86.84H799.075ZM794.795 90.34C795.208 90.34 795.595 90.3933 795.955 90.5C796.315 90.5933 796.622 90.74 796.875 90.94C797.142 91.14 797.348 91.3867 797.495 91.68C797.655 91.9733 797.735 92.3067 797.735 92.68V94.04C797.735 94.36 797.662 94.6533 797.515 94.92C797.382 95.2 797.195 95.44 796.955 95.64C796.715 95.84 796.435 95.9933 796.115 96.1C795.795 96.2067 795.448 96.26 795.075 96.26H787.715C787.395 96.26 787.075 96.2067 786.755 96.1C786.435 95.9933 786.148 95.84 785.895 95.64C785.642 95.4533 785.435 95.22 785.275 94.94C785.128 94.6733 785.055 94.3667 785.055 94.02V92.68C785.055 92.28 785.155 91.9333 785.355 91.64C785.555 91.3467 785.802 91.1067 786.095 90.92C786.402 90.72 786.735 90.5733 787.095 90.48C787.468 90.3867 787.815 90.34 788.135 90.34H794.795ZM788.815 92.54C788.415 92.54 788.128 92.62 787.955 92.78C787.795 92.9267 787.715 93.0733 787.715 93.22V93.56C787.715 93.8667 787.808 94.06 787.995 94.14C788.195 94.22 788.468 94.26 788.815 94.26H794.355C794.608 94.26 794.828 94.2133 795.015 94.12C795.202 94.0267 795.295 93.8733 795.295 93.66V93.3C795.295 93.0867 795.208 92.9067 795.035 92.76C794.862 92.6133 794.642 92.54 794.375 92.54H788.815ZM816.23 96.24H813.39V79.62H816.23V96.24ZM808.39 80.8H805.63V84.12C805.63 85.44 805.363 86.58 804.83 87.54C804.31 88.4867 803.457 89.26 802.27 89.86V92.54C802.883 92.2867 803.477 91.98 804.05 91.62C804.543 91.3133 805.057 90.9267 805.59 90.46C806.137 89.98 806.603 89.4067 806.99 88.74C807.43 89.4067 807.91 89.98 808.43 90.46C808.963 90.9267 809.457 91.3133 809.91 91.62C810.443 91.98 810.977 92.2867 811.51 92.54V89.84C810.923 89.4667 810.43 89.08 810.03 88.68C809.63 88.2667 809.31 87.8267 809.07 87.36C808.83 86.8933 808.657 86.3933 808.55 85.86C808.443 85.3267 808.39 84.7467 808.39 84.12V80.8Z" fill="white"/>
<rect x="863" y="64" width="152" height="43" rx="10" fill="#83B1B1"/>
<rect x="863" y="75" width="152" height="32" fill="#83B1B1"/>
<path d="M910.97 80.56H914.19V82.4H912.75C912.977 82.64 913.157 82.92 913.29 83.24C913.423 83.56 913.49 83.8933 913.49 84.24V86.32C913.49 86.7467 913.417 87.1333 913.27 87.48C913.123 87.8267 912.93 88.1333 912.69 88.4C912.45 88.6533 912.17 88.8533 911.85 89C911.53 89.1333 911.19 89.2 910.83 89.2H908.35C907.99 89.2 907.65 89.1333 907.33 89C907.01 88.8533 906.723 88.66 906.47 88.42C906.23 88.18 906.037 87.9 905.89 87.58C905.743 87.2467 905.67 86.8933 905.67 86.52V84.24C905.67 83.8933 905.737 83.56 905.87 83.24C906.003 82.92 906.183 82.64 906.41 82.4H905.01V80.56H908.23V79.42H910.97V80.56ZM906.37 90.32H918.41V92.6C918.383 93.0933 918.33 93.56 918.25 94C918.17 94.44 918.077 94.8267 917.97 95.16C917.85 95.5467 917.723 95.9067 917.59 96.24H915.13C915.357 95.8 915.53 95.36 915.65 94.92C915.77 94.4933 915.857 94.1067 915.91 93.76C915.963 93.36 915.99 92.9733 915.99 92.6H906.37V90.32ZM920.59 82.82V85.18H918.33V88.68H915.95V79.4H918.33V82.82H920.59ZM911.17 86.04V84.76C911.17 84.44 911.063 84.1733 910.85 83.96C910.637 83.7467 910.363 83.64 910.03 83.64H909.19C908.87 83.64 908.583 83.7467 908.33 83.96C908.09 84.1733 907.97 84.44 907.97 84.76V86.04C907.97 86.3733 908.057 86.6467 908.23 86.86C908.417 87.0733 908.67 87.18 908.99 87.18H910.11C910.443 87.18 910.703 87.0733 910.89 86.86C911.077 86.6467 911.17 86.3733 911.17 86.04ZM939.148 88.6H923.788V86.54H939.148V88.6ZM937.348 96.22H925.448V89.82H927.968V91.28H934.947V89.82H937.348V96.22ZM927.968 94.26H934.947V93.08H927.968V94.26ZM932.808 79.38V79.98C932.808 80.3267 932.934 80.6933 933.188 81.08C933.441 81.4533 933.788 81.8133 934.228 82.16C934.681 82.4933 935.214 82.7867 935.828 83.04C936.441 83.2933 937.101 83.4733 937.808 83.58V85.58C937.354 85.5 936.814 85.3933 936.188 85.26C935.561 85.1133 934.934 84.92 934.308 84.68C933.694 84.44 933.114 84.14 932.568 83.78C932.034 83.4067 931.634 82.9467 931.368 82.4C931.208 82.7867 930.961 83.1333 930.628 83.44C930.308 83.7333 929.934 83.9933 929.508 84.22C929.094 84.4467 928.654 84.64 928.188 84.8C927.721 84.96 927.268 85.0933 926.828 85.2C926.388 85.3067 925.988 85.3933 925.628 85.46C925.268 85.5133 924.988 85.5533 924.788 85.58V83.44C925.521 83.3867 926.201 83.2467 926.828 83.02C927.468 82.78 928.021 82.5 928.488 82.18C928.968 81.8467 929.341 81.4867 929.608 81.1C929.888 80.7 930.028 80.32 930.028 79.96V79.38H932.808ZM943.81 96.24L943.75 96.26H955.83V94.4H946.35V93.56H955.83V89.1H943.81V90.72H953.07V91.7H943.81V96.24ZM948.29 79.62H945.43C945.03 79.62 944.643 79.6933 944.27 79.84C943.897 79.9733 943.563 80.1667 943.27 80.42C942.99 80.66 942.763 80.9467 942.59 81.28C942.43 81.6 942.35 81.9467 942.35 82.32V85.02C942.35 85.3933 942.43 85.7467 942.59 86.08C942.763 86.4 942.99 86.6867 943.27 86.94C943.563 87.18 943.897 87.3733 944.27 87.52C944.643 87.6533 945.03 87.72 945.43 87.72H948.29C948.69 87.72 949.07 87.6533 949.43 87.52C949.79 87.3733 950.103 87.18 950.37 86.94C950.65 86.6867 950.863 86.4 951.01 86.08C951.17 85.7467 951.25 85.3933 951.25 85.02V82.32C951.25 81.9467 951.17 81.6 951.01 81.28C950.863 80.9467 950.65 80.66 950.37 80.42C950.103 80.1667 949.79 79.9733 949.43 79.84C949.07 79.6933 948.69 79.62 948.29 79.62ZM955.77 88.26H953.09V79.4H955.77V88.26ZM948.65 84.48C948.65 84.8133 948.523 85.0867 948.27 85.3C948.017 85.5133 947.703 85.62 947.33 85.62H946.37C945.983 85.62 945.65 85.5133 945.37 85.3C945.103 85.0867 944.97 84.8133 944.97 84.48V82.86C944.97 82.5267 945.103 82.2533 945.37 82.04C945.65 81.8133 945.983 81.7 946.37 81.7H947.33C947.703 81.7 948.017 81.8133 948.27 82.04C948.523 82.2533 948.65 82.5267 948.65 82.86V84.48ZM964.698 80.1H967.298V88.56H959.038V80.1H961.618V82.7H964.698V80.1ZM961.618 86.46H964.698V84.82H961.618V86.46ZM972.038 84.1H973.998V86.34H972.038V90.38H969.538V79.4H972.038V84.1ZM972.418 95.66H960.458V90.32H962.978V93.32H972.418V95.66Z" fill="white"/>
<defs>
<linearGradient id="paint0_linear" x1="690" y1="15" x2="690" y2="915" gradientUnits="userSpaceOnUse">
<stop stop-color="#A6D6CD"/>
<stop offset="1" stop-color="#A6D6CD" stop-opacity="0"/>
</linearGradient>
<linearGradient id="paint1_linear" x1="40" y1="778" x2="1344" y2="778" gradientUnits="userSpaceOnUse">
<stop stop-color="#A2DE3F"/>
<stop offset="1" stop-color="#7CC800"/>
</linearGradient>
</defs>
</svg>
